<svg width="70" height="71" viewBox="0 0 70 71" fill="none" xmlns="http://www.w3.org/2000/svg">
<circle cx="35" cy="35.0063" r="33.5" fill="#D9DAFF" stroke="#0009FF" stroke-width="3"/>
<path fill-rule="evenodd" clip-rule="evenodd" d="M41 22.0063H30V39.0063H41V33.5688H50.8125V22.0688H41V22.0063ZM19.6085 50.3978C19.339 50.1282 19.1875 49.7626 19.1875 49.3813V33.5688H29.25V49.3813C29.25 49.7626 29.0985 50.1282 28.829 50.3978C28.5594 50.6674 28.1937 50.8188 27.8125 50.8188H20.625C20.2438 50.8188 19.8781 50.6674 19.6085 50.3978Z" fill="white"/>
<path d="M50.8125 20.6313H19.1875C18.8063 20.6313 18.4406 20.7828 18.171 21.0524C17.9015 21.322 17.75 21.6876 17.75 22.0688V49.3813C17.75 50.1438 18.0529 50.8751 18.5921 51.4143C19.1312 51.9534 19.8625 52.2563 20.625 52.2563H27.8125C28.575 52.2563 29.3063 51.9534 29.8454 51.4143C30.3846 50.8751 30.6875 50.1438 30.6875 49.3813V40.7563H39.3125V43.6313C39.3125 44.3938 39.6154 45.1251 40.1546 45.6643C40.6937 46.2034 41.425 46.5063 42.1875 46.5063H49.375C50.1375 46.5063 50.8688 46.2034 51.4079 45.6643C51.9471 45.1251 52.25 44.3938 52.25 43.6313V22.0688C52.25 21.6876 52.0985 21.322 51.829 21.0524C51.5594 20.7828 51.1937 20.6313 50.8125 20.6313ZM49.375 32.1313H42.1875V23.5063H49.375V32.1313ZM27.8125 23.5063V32.1313H20.625V23.5063H27.8125ZM27.8125 49.3813H20.625V35.0063H27.8125V49.3813ZM30.6875 37.8813V23.5063H39.3125V37.8813H30.6875ZM42.1875 43.6313V35.0063H49.375V43.6313H42.1875Z" fill="#0009FF"/>
</svg>
