<svg width="70" height="71" viewBox="0 0 70 71" fill="none" xmlns="http://www.w3.org/2000/svg">
<circle cx="35" cy="35.0063" r="33.5" fill="#D9DAFF" stroke="#0009FF" stroke-width="3"/>
<path d="M46.4847 39.0334L37.6056 42.299C37.4207 42.3667 37.2528 42.4739 37.1136 42.6131C36.9744 42.7523 36.8672 42.9202 36.7995 43.1051L33.5339 51.9842C33.4375 52.2453 33.2634 52.4705 33.0351 52.6296C32.8068 52.7887 32.5352 52.874 32.2568 52.874C31.9785 52.874 31.7069 52.7887 31.4786 52.6296C31.2503 52.4705 31.0762 52.2453 30.9798 51.9842L27.7142 43.1051C27.6465 42.9202 27.5393 42.7523 27.4001 42.6131C27.2609 42.4739 27.093 42.3667 26.9081 42.299L18.029 39.0334C17.768 38.937 17.5427 38.7629 17.3836 38.5346C17.2245 38.3063 17.1392 38.0347 17.1392 37.7564C17.1392 37.4781 17.2245 37.2064 17.3836 36.9781C17.5427 36.7498 17.768 36.5757 18.029 36.4793L26.9081 33.2137C27.093 33.146 27.2609 33.0388 27.4001 32.8996C27.5393 32.7604 27.6465 32.5925 27.7142 32.4076L30.9798 23.5285C31.0762 23.2675 31.2503 23.0422 31.4786 22.8831C31.7069 22.724 31.9785 22.6387 32.2568 22.6387C32.5352 22.6387 32.8068 22.724 33.0351 22.8831C33.2634 23.0422 33.4375 23.2675 33.5339 23.5285L36.7995 32.4076C36.8672 32.5925 36.9744 32.7604 37.1136 32.8996C37.2528 33.0388 37.4207 33.146 37.6056 33.2137L46.4847 36.4793C46.7457 36.5757 46.971 36.7498 47.1301 36.9781C47.2892 37.2064 47.3745 37.4781 47.3745 37.7564C47.3745 38.0347 47.2892 38.3063 47.1301 38.5346C46.971 38.7629 46.7457 38.937 46.4847 39.0334Z" fill="white"/>
<path d="M46.9591 35.1885L38.0886 31.9229L34.823 23.0456C34.6296 22.5202 34.2797 22.0668 33.8205 21.7465C33.3613 21.4262 32.815 21.2545 32.2551 21.2545C31.6953 21.2545 31.149 21.4262 30.6898 21.7465C30.2306 22.0668 29.8807 22.5202 29.6873 23.0456L26.4183 31.9126L17.5409 35.1782C17.0156 35.3716 16.5621 35.7215 16.2419 36.1807C15.9216 36.6398 15.7499 37.1862 15.7499 37.746C15.7499 38.3059 15.9216 38.8522 16.2419 39.3114C16.5621 39.7706 17.0156 40.1205 17.5409 40.3139L26.4062 43.6001L29.6719 52.4723C29.8653 52.9977 30.2151 53.4511 30.6743 53.7713C31.1335 54.0916 31.6798 54.2633 32.2397 54.2633C32.7995 54.2633 33.3459 54.0916 33.805 53.7713C34.2642 53.4511 34.6141 52.9977 34.8075 52.4723L38.0731 43.6018L46.9505 40.3362C47.4758 40.1428 47.9292 39.7929 48.2495 39.3337C48.5698 38.8746 48.7415 38.3282 48.7415 37.7684C48.7415 37.2085 48.5698 36.6622 48.2495 36.203C47.9292 35.7438 47.4758 35.394 46.9505 35.2006L46.9591 35.1885ZM37.1295 41.022C36.7579 41.1584 36.4205 41.374 36.1406 41.6539C35.8607 41.9337 35.6451 42.2712 35.5087 42.6428L32.2431 51.4874L28.9844 42.6359C28.8479 42.2663 28.6329 41.9306 28.3543 41.652C28.0757 41.3734 27.7401 41.1585 27.3705 41.022L18.5258 37.7563L27.3705 34.4907C27.7401 34.3542 28.0757 34.1393 28.3543 33.8607C28.6329 33.5821 28.8479 33.2464 28.9844 32.8768L32.25 24.0321L35.5156 32.8768C35.652 33.2484 35.8676 33.5858 36.1475 33.8657C36.4274 34.1456 36.7648 34.3612 37.1364 34.4976L45.9811 37.7632L37.1295 41.022ZM37.75 19.8813C37.75 19.5167 37.8949 19.1669 38.1527 18.9091C38.4106 18.6512 38.7603 18.5063 39.125 18.5063H41.875V15.7563C41.875 15.3917 42.0199 15.0419 42.2777 14.7841C42.5356 14.5262 42.8853 14.3813 43.25 14.3813C43.6147 14.3813 43.9644 14.5262 44.2223 14.7841C44.4801 15.0419 44.625 15.3917 44.625 15.7563V18.5063H47.375C47.7397 18.5063 48.0894 18.6512 48.3473 18.9091C48.6051 19.1669 48.75 19.5167 48.75 19.8813C48.75 20.246 48.6051 20.5958 48.3473 20.8536C48.0894 21.1115 47.7397 21.2563 47.375 21.2563H44.625V24.0063C44.625 24.371 44.4801 24.7208 44.2223 24.9786C43.9644 25.2365 43.6147 25.3813 43.25 25.3813C42.8853 25.3813 42.5356 25.2365 42.2777 24.9786C42.0199 24.7208 41.875 24.371 41.875 24.0063V21.2563H39.125C38.7603 21.2563 38.4106 21.1115 38.1527 20.8536C37.8949 20.5958 37.75 20.246 37.75 19.8813ZM55.625 28.1313C55.625 28.496 55.4801 28.8458 55.2223 29.1036C54.9644 29.3615 54.6147 29.5063 54.25 29.5063H52.875V30.8813C52.875 31.246 52.7301 31.5958 52.4723 31.8536C52.2144 32.1115 51.8647 32.2563 51.5 32.2563C51.1353 32.2563 50.7856 32.1115 50.5277 31.8536C50.2699 31.5958 50.125 31.246 50.125 30.8813V29.5063H48.75C48.3853 29.5063 48.0356 29.3615 47.7777 29.1036C47.5199 28.8458 47.375 28.496 47.375 28.1313C47.375 27.7667 47.5199 27.4169 47.7777 27.1591C48.0356 26.9012 48.3853 26.7563 48.75 26.7563H50.125V25.3813C50.125 25.0167 50.2699 24.6669 50.5277 24.4091C50.7856 24.1512 51.1353 24.0063 51.5 24.0063C51.8647 24.0063 52.2144 24.1512 52.4723 24.4091C52.7301 24.6669 52.875 25.0167 52.875 25.3813V26.7563H54.25C54.6147 26.7563 54.9644 26.9012 55.2223 27.1591C55.4801 27.4169 55.625 27.7667 55.625 28.1313Z" fill="#0009FF"/>
</svg>
