<svg width="70" height="70" viewBox="0 0 70 70" fill="none" xmlns="http://www.w3.org/2000/svg">
<circle cx="35" cy="35" r="33.5" fill="#D9DAFF" stroke="#0009FF" stroke-width="3"/>
<path d="M50.8281 48.2844C50.8742 48.4452 50.8764 48.6154 50.8345 48.7774C50.7925 48.9393 50.7081 49.0871 50.5898 49.2054C50.4715 49.3237 50.3237 49.4082 50.1617 49.4501C49.9998 49.492 49.8296 49.4898 49.6688 49.4437L45.0016 48.1109C43.57 48.8904 41.9862 49.3497 40.3598 49.457C38.7333 49.5644 37.1029 49.3173 35.5813 48.7327C34.0597 48.1482 32.6831 47.2403 31.5468 46.0716C30.4105 44.9029 29.5416 43.5015 29 41.9641C29.2031 41.975 29.4078 41.9812 29.6141 41.9812C31.4122 41.9814 33.1842 41.5505 34.7816 40.7247C36.3789 39.8988 37.755 38.7021 38.7945 37.2349C39.834 35.7677 40.5067 34.0726 40.7561 32.2918C41.0056 30.511 40.8245 28.6964 40.2281 27C42.1248 27.1035 43.9645 27.6856 45.5755 28.6921C47.1865 29.6985 48.5165 31.0964 49.4414 32.7556C50.3662 34.4148 50.856 36.2811 50.8649 38.1806C50.8737 40.0802 50.4015 41.951 49.4922 43.6187L50.8281 48.2844Z" fill="white"/>
<path d="M51.715 44.5002C52.5965 42.7082 53.0359 40.731 52.9962 38.7343C52.9566 36.7376 52.4391 34.7794 51.4871 33.0238C50.5351 31.2682 49.1763 29.7662 47.5244 28.6437C45.8726 27.5212 43.9759 26.8108 41.9931 26.5721C41.3355 25.0391 40.3777 23.6533 39.1763 22.4963C37.9748 21.3392 36.5539 20.4344 34.9973 19.835C33.4407 19.2356 31.7799 18.9538 30.1127 19.0062C28.4455 19.0586 26.8056 19.4442 25.2897 20.1401C23.7739 20.8361 22.4126 21.8285 21.2862 23.0587C20.1598 24.289 19.291 25.7322 18.731 27.3034C18.171 28.8746 17.9311 30.542 18.0255 32.2074C18.1199 33.8727 18.5466 35.5023 19.2806 37.0002L18.0837 41.1908C17.9769 41.5657 17.9722 41.9624 18.0702 42.3397C18.1681 42.717 18.3651 43.0613 18.6407 43.337C18.9163 43.6126 19.2606 43.8096 19.638 43.9075C20.0153 44.0054 20.4119 44.0008 20.7868 43.894L24.9775 42.6971C26.242 43.3179 27.6022 43.721 29.0009 43.8893C29.6676 45.4513 30.6456 46.8611 31.8753 48.0326C33.1049 49.204 34.5604 50.1127 36.1529 50.7029C37.7454 51.2932 39.4415 51.5528 41.1376 51.4658C42.8337 51.3789 44.4943 50.9472 46.0181 50.1971L50.2087 51.394C50.5836 51.5008 50.9802 51.5054 51.3576 51.4075C51.7349 51.3096 52.0792 51.1126 52.3548 50.837C52.6305 50.5613 52.8275 50.217 52.9254 49.8397C53.0233 49.4624 53.0186 49.0657 52.9118 48.6908L51.715 44.5002ZM25.1118 40.1096C24.9957 40.1096 24.88 40.1254 24.7681 40.1565L20.6415 41.3361L21.8212 37.2096C21.9096 36.8952 21.8715 36.5587 21.715 36.2721C20.5656 34.162 20.2151 31.7084 20.7277 29.3609C21.2403 27.0133 22.5816 24.9292 24.5059 23.4902C26.4303 22.0512 28.8086 21.3539 31.2053 21.5259C33.602 21.698 35.8564 22.7279 37.5554 24.4269C39.2545 26.126 40.2844 28.3804 40.4564 30.777C40.6285 33.1737 39.9311 35.5521 38.4921 37.4764C37.0532 39.4007 34.969 40.7421 32.6215 41.2546C30.274 41.7672 27.8204 41.4167 25.7103 40.2674C25.5273 40.1651 25.3214 40.1108 25.1118 40.1096ZM49.1743 44.7096L50.354 48.8361L46.2275 47.6565C45.9131 47.568 45.5766 47.6062 45.29 47.7627C42.9857 49.0163 40.2815 49.3153 37.7591 48.5952C35.2367 47.8752 33.0977 46.1938 31.8025 43.9127C33.5141 43.7344 35.1704 43.2044 36.6675 42.3557C38.1646 41.5071 39.4702 40.3582 40.5023 38.9812C41.5345 37.6042 42.2708 36.0287 42.6653 34.3536C43.0598 32.6785 43.1038 30.94 42.7946 29.2471C44.2925 29.6001 45.6887 30.294 46.8744 31.2748C48.0602 32.2557 49.0037 33.4969 49.6313 34.902C50.2589 36.3071 50.5538 37.8381 50.493 39.3757C50.4321 40.9134 50.0172 42.4163 49.2806 43.7674C49.1228 44.0553 49.0846 44.3938 49.1743 44.7096Z" fill="#0009FF"/>
</svg>
