<svg width="70" height="71" viewBox="0 0 70 71" fill="none" xmlns="http://www.w3.org/2000/svg">
<circle cx="35" cy="35.0063" r="33.5" fill="#D9DAFF" stroke="#0009FF" stroke-width="3"/>
<path d="M47.5 33.1313V38.7563C47.5 40.3979 47.1767 42.0233 46.5485 43.5399C45.9203 45.0565 44.9996 46.4345 43.8388 47.5952C42.6781 48.7559 41.3001 49.6767 39.7835 50.3048C38.267 50.933 36.6415 51.2563 35 51.2563C28.0969 51.2563 26.2797 47.5063 20.4187 37.1938C20.0109 36.4765 19.9033 35.6269 20.1195 34.8305C20.3357 34.0341 20.8582 33.3556 21.5728 32.943C22.2875 32.5304 23.1363 32.4172 23.9341 32.6281C24.7319 32.839 25.4139 33.357 25.8312 34.0688L28.75 38.7563V21.8813C28.75 21.0525 29.0792 20.2577 29.6653 19.6716C30.2513 19.0856 31.0462 18.7563 31.875 18.7563C32.7038 18.7563 33.4986 19.0856 34.0847 19.6716C34.6707 20.2577 35 21.0525 35 21.8813V30.6313C35 29.8025 35.3292 29.0077 35.9153 28.4216C36.5013 27.8356 37.2962 27.5063 38.125 27.5063C38.9538 27.5063 39.7486 27.8356 40.3347 28.4216C40.9207 29.0077 41.25 29.8025 41.25 30.6313V33.1313C41.25 32.3025 41.5792 31.5077 42.1653 30.9216C42.7513 30.3356 43.5462 30.0063 44.375 30.0063C45.2038 30.0063 45.9986 30.3356 46.5847 30.9216C47.1707 31.5077 47.5 32.3025 47.5 33.1313Z" fill="white"/>
<path d="M44.375 28.7563C43.6463 28.7555 42.9291 28.9377 42.2891 29.286C42.0977 28.6935 41.782 28.1486 41.3632 27.6878C40.9443 27.2271 40.4319 26.861 39.8603 26.6142C39.2886 26.3673 38.6708 26.2453 38.0482 26.2564C37.4256 26.2674 36.8126 26.4112 36.25 26.6782V21.8813C36.25 20.721 35.7891 19.6082 34.9686 18.7878C34.1481 17.9673 33.0353 17.5063 31.875 17.5063C30.7147 17.5063 29.6019 17.9673 28.7814 18.7878C27.961 19.6082 27.5 20.721 27.5 21.8813V34.3813L26.9031 33.4235C26.6145 32.9265 26.2309 32.4911 25.774 32.1423C25.3172 31.7935 24.7961 31.5381 24.2405 31.3907C23.1185 31.093 21.9242 31.2532 20.9203 31.836C19.9164 32.4189 19.1852 33.3767 18.8875 34.4987C18.5898 35.6207 18.75 36.815 19.3328 37.8188L20.0625 39.1048C25.4391 48.5829 27.6641 52.5063 35 52.5063C38.6455 52.5022 42.1404 51.0522 44.7182 48.4745C47.2959 45.8968 48.7459 42.4018 48.75 38.7563V33.1313C48.75 31.971 48.2891 30.8582 47.4686 30.0378C46.6481 29.2173 45.5353 28.7563 44.375 28.7563ZM46.25 38.7563C46.2467 41.739 45.0604 44.5986 42.9513 46.7076C40.8422 48.8167 37.9827 50.003 35 50.0063C29.1203 50.0063 27.525 47.1938 22.2375 37.8688L21.5047 36.5767V36.5688C21.2559 36.1386 21.188 35.6273 21.3161 35.1471C21.4441 34.6669 21.7575 34.2571 22.1875 34.0079C22.4723 33.8429 22.7959 33.7567 23.125 33.7579C23.4546 33.7574 23.7785 33.8438 24.0641 34.0084C24.3496 34.173 24.5868 34.41 24.7516 34.6954C24.7579 34.7079 24.7653 34.7199 24.7735 34.7313L27.6906 39.4188C27.8346 39.6487 28.0494 39.8255 28.3027 39.9226C28.556 40.0196 28.834 40.0317 29.0947 39.9569C29.3554 39.8821 29.5847 39.7245 29.7481 39.508C29.9114 39.2914 29.9998 39.0276 30 38.7563V21.8813C30 21.3841 30.1976 20.9072 30.5492 20.5555C30.9008 20.2039 31.3777 20.0063 31.875 20.0063C32.3723 20.0063 32.8492 20.2039 33.2008 20.5555C33.5525 20.9072 33.75 21.3841 33.75 21.8813V32.5063C33.75 32.8379 33.8817 33.1558 34.1161 33.3902C34.3506 33.6247 34.6685 33.7563 35 33.7563C35.3315 33.7563 35.6495 33.6247 35.8839 33.3902C36.1183 33.1558 36.25 32.8379 36.25 32.5063V30.6313C36.25 30.1341 36.4476 29.6572 36.7992 29.3055C37.1508 28.9539 37.6277 28.7563 38.125 28.7563C38.6223 28.7563 39.0992 28.9539 39.4508 29.3055C39.8025 29.6572 40 30.1341 40 30.6313V33.7563C40 34.0879 40.1317 34.4058 40.3661 34.6402C40.6006 34.8747 40.9185 35.0063 41.25 35.0063C41.5815 35.0063 41.8995 34.8747 42.1339 34.6402C42.3683 34.4058 42.5 34.0879 42.5 33.7563V33.1313C42.5 32.6341 42.6976 32.1572 43.0492 31.8055C43.4008 31.4539 43.8777 31.2563 44.375 31.2563C44.8723 31.2563 45.3492 31.4539 45.7008 31.8055C46.0525 32.1572 46.25 32.6341 46.25 33.1313V38.7563Z" fill="#0009FF"/>
</svg>
