<svg width="70" height="70" viewBox="0 0 70 70" fill="none" xmlns="http://www.w3.org/2000/svg">
<circle cx="35" cy="35" r="33.5" fill="#0009FF" fill-opacity="0.15" stroke="#0009FF" stroke-width="3"/>
<path d="M30.25 51.625L32.625 39.75L23.125 36.1875L39.75 18.375L37.375 30.25L46.875 33.8125L30.25 51.625Z" fill="white"/>
<path d="M48.0314 33.5409C47.9864 33.3506 47.8951 33.1743 47.7657 33.0277C47.6362 32.8812 47.4725 32.7688 47.2892 32.7007L38.7377 29.493L40.9138 18.6081C40.9631 18.3552 40.9288 18.0931 40.816 17.8614C40.7033 17.6297 40.5182 17.441 40.2888 17.3237C40.0594 17.2064 39.7981 17.1669 39.5443 17.2111C39.2904 17.2554 39.0579 17.381 38.8817 17.569L22.2567 35.3815C22.1217 35.5238 22.024 35.6973 21.9724 35.8865C21.9208 36.0758 21.9168 36.2749 21.961 36.466C22.0051 36.6571 22.0958 36.8343 22.2251 36.9818C22.3544 37.1293 22.5183 37.2425 22.702 37.3112L31.2565 40.5189L29.0863 51.392C29.037 51.6449 29.0713 51.907 29.1841 52.1387C29.2968 52.3703 29.4818 52.5591 29.7113 52.6764C29.9407 52.7937 30.202 52.8332 30.4558 52.7889C30.7097 52.7447 30.9422 52.6191 31.1184 52.431L47.7434 34.6185C47.876 34.4762 47.9716 34.3035 48.0218 34.1156C48.072 33.9277 48.0753 33.7304 48.0314 33.5409ZM32.2347 47.7657L33.7888 39.9905C33.8444 39.7148 33.8003 39.4282 33.6644 39.1819C33.5285 38.9356 33.3096 38.7456 33.0466 38.6457L25.2032 35.6992L37.764 22.2418L36.2113 30.017C36.1557 30.2927 36.1998 30.5793 36.3357 30.8256C36.4716 31.0719 36.6905 31.2619 36.9535 31.3618L44.791 34.3009L32.2347 47.7657Z" fill="#0009FF" stroke="#0009FF" stroke-width="0.5"/>
</svg>
