<svg width="70" height="70" viewBox="0 0 70 70" fill="none" xmlns="http://www.w3.org/2000/svg">
<circle cx="35" cy="35" r="33.5" fill="#0009FF" fill-opacity="0.15" stroke="#0009FF" stroke-width="3"/>
<path d="M51.5 35C51.5 38.2634 50.5323 41.4535 48.7193 44.1669C46.9062 46.8803 44.3293 48.9952 41.3143 50.244C38.2993 51.4929 34.9817 51.8196 31.781 51.183C28.5803 50.5463 25.6403 48.9748 23.3327 46.6673C21.0252 44.3597 19.4537 41.4197 18.8171 38.219C18.1804 35.0183 18.5071 31.7007 19.756 28.6857C21.0048 25.6707 23.1197 23.0938 25.8331 21.2808C28.5465 19.4677 31.7366 18.5 35 18.5C39.3761 18.5 43.5729 20.2384 46.6673 23.3327C49.7616 26.4271 51.5 30.6239 51.5 35Z" fill="white"/>
<path d="M35 17.125C31.4647 17.125 28.0087 18.1734 25.0692 20.1375C22.1297 22.1016 19.8386 24.8933 18.4857 28.1595C17.1327 31.4258 16.7788 35.0198 17.4685 38.4872C18.1582 41.9547 19.8606 45.1397 22.3605 47.6395C24.8603 50.1394 28.0454 51.8418 31.5128 52.5315C34.9802 53.2212 38.5742 52.8673 41.8405 51.5143C45.1067 50.1614 47.8984 47.8703 49.8625 44.9308C51.8267 41.9913 52.875 38.5353 52.875 35C52.87 30.2608 50.9851 25.7171 47.634 22.366C44.2829 19.0149 39.7392 17.13 35 17.125ZM35 50.125C32.0086 50.125 29.0843 49.2379 26.597 47.576C24.1097 45.914 22.1711 43.5518 21.0263 40.7881C19.8816 38.0244 19.582 34.9832 20.1656 32.0493C20.7492 29.1153 22.1897 26.4203 24.305 24.305C26.4203 22.1897 29.1153 20.7492 32.0493 20.1656C34.9832 19.582 38.0244 19.8815 40.7881 21.0263C43.5518 22.1711 45.914 24.1097 47.576 26.597C49.2379 29.0843 50.125 32.0086 50.125 35C50.1205 39.01 48.5255 42.8545 45.69 45.69C42.8545 48.5255 39.01 50.1205 35 50.125ZM41.875 38.4375C41.875 39.7139 41.368 40.9379 40.4655 41.8405C39.5629 42.743 38.3389 43.25 37.0625 43.25H36.375V44.625C36.375 44.9897 36.2301 45.3394 35.9723 45.5973C35.7144 45.8551 35.3647 46 35 46C34.6353 46 34.2856 45.8551 34.0277 45.5973C33.7699 45.3394 33.625 44.9897 33.625 44.625V43.25H30.875C30.5103 43.25 30.1606 43.1051 29.9027 42.8473C29.6449 42.5894 29.5 42.2397 29.5 41.875C29.5 41.5103 29.6449 41.1606 29.9027 40.9027C30.1606 40.6449 30.5103 40.5 30.875 40.5H37.0625C37.6095 40.5 38.1341 40.2827 38.5209 39.8959C38.9077 39.5091 39.125 38.9845 39.125 38.4375C39.125 37.8905 38.9077 37.3659 38.5209 36.9791C38.1341 36.5923 37.6095 36.375 37.0625 36.375H32.9375C31.6612 36.375 30.4371 35.868 29.5346 34.9655C28.632 34.0629 28.125 32.8389 28.125 31.5625C28.125 30.2861 28.632 29.0621 29.5346 28.1595C30.4371 27.257 31.6612 26.75 32.9375 26.75H33.625V25.375C33.625 25.0103 33.7699 24.6606 34.0277 24.4027C34.2856 24.1449 34.6353 24 35 24C35.3647 24 35.7144 24.1449 35.9723 24.4027C36.2301 24.6606 36.375 25.0103 36.375 25.375V26.75H39.125C39.4897 26.75 39.8394 26.8949 40.0973 27.1527C40.3551 27.4106 40.5 27.7603 40.5 28.125C40.5 28.4897 40.3551 28.8394 40.0973 29.0973C39.8394 29.3551 39.4897 29.5 39.125 29.5H32.9375C32.3905 29.5 31.8659 29.7173 31.4791 30.1041C31.0923 30.4909 30.875 31.0155 30.875 31.5625C30.875 32.1095 31.0923 32.6341 31.4791 33.0209C31.8659 33.4077 32.3905 33.625 32.9375 33.625H37.0625C38.3389 33.625 39.5629 34.132 40.4655 35.0345C41.368 35.9371 41.875 37.1611 41.875 38.4375Z" fill="#0009FF"/>
</svg>
