<svg width="70" height="70" viewBox="0 0 70 70" fill="none" xmlns="http://www.w3.org/2000/svg">
<circle cx="35" cy="35" r="33.5" fill="#0009FF" fill-opacity="0.15" stroke="#0009FF" stroke-width="3"/>
<path d="M51.5 35C51.5 38.2634 50.5323 41.4535 48.7193 44.1669C46.9062 46.8803 44.3293 48.9952 41.3143 50.244C38.2993 51.4929 34.9817 51.8196 31.781 51.183C28.5803 50.5463 25.6403 48.9748 23.3327 46.6673C21.0252 44.3597 19.4537 41.4197 18.8171 38.219C18.1804 35.0183 18.5071 31.7007 19.756 28.6857C21.0048 25.6707 23.1197 23.0938 25.8331 21.2808C28.5465 19.4677 31.7366 18.5 35 18.5C39.3761 18.5 43.5729 20.2384 46.6673 23.3327C49.7616 26.4271 51.5 30.6239 51.5 35Z" fill="white"/>
<path d="M35 17.125C31.4647 17.125 28.0087 18.1734 25.0692 20.1375C22.1297 22.1016 19.8386 24.8933 18.4857 28.1595C17.1327 31.4258 16.7788 35.0198 17.4685 38.4872C18.1582 41.9547 19.8606 45.1397 22.3605 47.6395C24.8603 50.1394 28.0454 51.8418 31.5128 52.5315C34.9802 53.2212 38.5742 52.8673 41.8405 51.5143C45.1067 50.1614 47.8984 47.8703 49.8625 44.9308C51.8267 41.9913 52.875 38.5353 52.875 35C52.87 30.2608 50.9851 25.7171 47.634 22.366C44.2829 19.0149 39.7392 17.13 35 17.125ZM50.0614 33.625H43.2156C42.9733 28.7334 41.4505 24.0911 38.8981 20.3906C41.8874 21.1932 44.5594 22.8915 46.555 25.2573C48.5506 27.6232 49.7742 30.5432 50.0614 33.625ZM29.5395 36.375H40.4605C40.1717 41.6808 38.2261 46.6222 35 50.1061C31.7808 46.6222 29.8283 41.6808 29.5395 36.375ZM29.5395 33.625C29.8283 28.3192 31.7739 23.3778 35 19.8939C38.2192 23.3778 40.1717 28.3158 40.4605 33.625H29.5395ZM31.1019 20.3906C28.5495 24.0911 27.0267 28.7334 26.7844 33.625H19.9386C20.2258 30.5432 21.4494 27.6232 23.445 25.2573C25.4406 22.8915 28.1126 21.1932 31.1019 20.3906ZM19.9386 36.375H26.7844C27.0267 41.2666 28.5495 45.9089 31.1019 49.6094C28.1126 48.8068 25.4406 47.1085 23.445 44.7427C21.4494 42.3768 20.2258 39.4568 19.9386 36.375ZM38.8981 49.6094C41.4505 45.9038 42.9733 41.2614 43.2156 36.375H50.0614C49.7742 39.4568 48.5506 42.3768 46.555 44.7427C44.5594 47.1085 41.8874 48.8068 38.8981 49.6094Z" fill="#0009FF"/>
</svg>
