<svg width="70" height="70" viewBox="0 0 70 70" fill="none" xmlns="http://www.w3.org/2000/svg">
<circle cx="35" cy="35" r="33.5" fill="#0009FF" fill-opacity="0.15" stroke="#0009FF" stroke-width="3"/>
<path fill-rule="evenodd" clip-rule="evenodd" d="M21.8077 43.75C25.1533 43.75 33.25 39.6366 33.25 34.5625C33.25 29.4884 25.1533 25.375 21.8077 25.375C18.4621 25.375 15.75 29.4884 15.75 34.5625C15.75 39.6366 18.4621 43.75 21.8077 43.75ZM48.5227 43.75C51.6858 43.75 54.25 39.6366 54.25 34.5625C54.25 29.4884 51.6858 25.375 48.5227 25.375C45.3596 25.375 36.75 29.4884 36.75 34.5625C36.75 39.6366 45.3596 43.75 48.5227 43.75Z" fill="url(#paint0_linear_130_831)"/>
<path fill-rule="evenodd" clip-rule="evenodd" d="M21.8077 43.75C25.1533 43.75 33.25 39.6366 33.25 34.5625C33.25 29.4884 25.1533 25.375 21.8077 25.375C18.4621 25.375 15.75 29.4884 15.75 34.5625C15.75 39.6366 18.4621 43.75 21.8077 43.75ZM48.5227 43.75C51.6858 43.75 54.25 39.6366 54.25 34.5625C54.25 29.4884 51.6858 25.375 48.5227 25.375C45.3596 25.375 36.75 29.4884 36.75 34.5625C36.75 39.6366 45.3596 43.75 48.5227 43.75Z" fill="url(#paint1_linear_130_831)"/>
<path fill-rule="evenodd" clip-rule="evenodd" d="M21.8077 43.75C25.1533 43.75 33.25 39.6366 33.25 34.5625C33.25 29.4884 25.1533 25.375 21.8077 25.375C18.4621 25.375 15.75 29.4884 15.75 34.5625C15.75 39.6366 18.4621 43.75 21.8077 43.75ZM48.5227 43.75C51.6858 43.75 54.25 39.6366 54.25 34.5625C54.25 29.4884 51.6858 25.375 48.5227 25.375C45.3596 25.375 36.75 29.4884 36.75 34.5625C36.75 39.6366 45.3596 43.75 48.5227 43.75Z" fill="url(#paint2_linear_130_831)"/>
<path fill-rule="evenodd" clip-rule="evenodd" d="M21.8077 43.75C25.1533 43.75 33.25 39.6366 33.25 34.5625C33.25 29.4884 25.1533 25.375 21.8077 25.375C18.4621 25.375 15.75 29.4884 15.75 34.5625C15.75 39.6366 18.4621 43.75 21.8077 43.75ZM48.5227 43.75C51.6858 43.75 54.25 39.6366 54.25 34.5625C54.25 29.4884 51.6858 25.375 48.5227 25.375C45.3596 25.375 36.75 29.4884 36.75 34.5625C36.75 39.6366 45.3596 43.75 48.5227 43.75Z" fill="url(#paint3_linear_130_831)"/>
<path fill-rule="evenodd" clip-rule="evenodd" d="M21.8077 43.75C25.1533 43.75 33.25 39.6366 33.25 34.5625C33.25 29.4884 25.1533 25.375 21.8077 25.375C18.4621 25.375 15.75 29.4884 15.75 34.5625C15.75 39.6366 18.4621 43.75 21.8077 43.75ZM48.5227 43.75C51.6858 43.75 54.25 39.6366 54.25 34.5625C54.25 29.4884 51.6858 25.375 48.5227 25.375C45.3596 25.375 36.75 29.4884 36.75 34.5625C36.75 39.6366 45.3596 43.75 48.5227 43.75Z" fill="url(#paint4_linear_130_831)"/>
<path d="M56.7364 34.5625C56.7365 36.5526 56.1382 38.4981 55.017 40.1529C53.8958 41.8077 52.3022 43.0974 50.4376 43.859C48.5731 44.6207 46.5213 44.8199 44.5419 44.4316C42.5625 44.0433 40.7443 43.0849 39.3173 41.6776L39.2572 41.6147L28.3339 29.4508C27.3112 28.4541 26.0124 27.778 24.601 27.5075C23.1896 27.237 21.7285 27.3843 20.4018 27.9307C19.075 28.4771 17.9418 29.3984 17.1447 30.5784C16.3476 31.7585 15.9223 33.1446 15.9223 34.5625C15.9223 35.9804 16.3476 37.3665 17.1447 38.5466C17.9418 39.7266 19.075 40.6479 20.4018 41.1943C21.7285 41.7407 23.1896 41.888 24.601 41.6175C26.0124 41.347 27.3112 40.6709 28.3339 39.6742L29.8863 37.9458C30.0132 37.8042 30.1672 37.6887 30.3394 37.6058C30.5116 37.5229 30.6987 37.4742 30.89 37.4627C31.0813 37.4511 31.273 37.4767 31.4542 37.5382C31.6354 37.5997 31.8026 37.6957 31.9461 37.8209C32.0897 37.9461 32.2069 38.0979 32.2909 38.2677C32.375 38.4375 32.4243 38.622 32.4361 38.8106C32.4478 38.9993 32.4218 39.1883 32.3595 39.367C32.2971 39.5457 32.1997 39.7105 32.0728 39.8521L30.4894 41.6147L30.4293 41.6776C29.0022 43.0847 27.1841 44.0429 25.2048 44.431C23.2255 44.8192 21.174 44.6198 19.3096 43.8583C17.4452 43.0967 15.8516 41.807 14.7305 40.1524C13.6094 38.4978 13.011 36.5525 13.011 34.5625C13.011 32.5725 13.6094 30.6272 14.7305 28.9726C15.8516 27.318 17.4452 26.0283 19.3096 25.2667C21.174 24.5052 23.2255 24.3058 25.2048 24.694C27.1841 25.0821 29.0022 26.0403 30.4293 27.4474L30.4894 27.5103L41.4127 39.6742C42.4354 40.6709 43.7342 41.347 45.1456 41.6175C46.5571 41.888 48.0181 41.7407 49.3449 41.1943C50.6716 40.6479 51.8048 39.7266 52.6019 38.5466C53.399 37.3665 53.8243 35.9804 53.8243 34.5625C53.8243 33.1446 53.399 31.7585 52.6019 30.5784C51.8048 29.3984 50.6716 28.4771 49.3449 27.9307C48.0181 27.3843 46.5571 27.237 45.1456 27.5075C43.7342 27.778 42.4354 28.4541 41.4127 29.4508L39.8603 31.1792C39.604 31.4651 39.2429 31.6389 38.8566 31.6623C38.4703 31.6858 38.0904 31.5569 37.8005 31.3041C37.5105 31.0513 37.3343 30.6953 37.3105 30.3144C37.2868 29.9334 37.4175 29.5588 37.6738 29.2729L39.2572 27.5103L39.3173 27.4474C40.7443 26.0401 42.5625 25.0817 44.5419 24.6934C46.5213 24.3051 48.5731 24.5043 50.4376 25.266C52.3022 26.0276 53.8958 27.3173 55.017 28.9721C56.1382 30.6269 56.7365 32.5724 56.7364 34.5625Z" fill="#0009FF"/>
<defs>
<linearGradient id="paint0_linear_130_831" x1="52.0625" y1="34.5625" x2="17.9375" y2="34.125" gradientUnits="userSpaceOnUse">
<stop stop-color="white"/>
<stop offset="0.408627" stop-color="white" stop-opacity="0"/>
<stop offset="0.534162" stop-color="white" stop-opacity="0"/>
<stop offset="1" stop-color="white"/>
</linearGradient>
<linearGradient id="paint1_linear_130_831" x1="52.0625" y1="34.5625" x2="17.9375" y2="34.125" gradientUnits="userSpaceOnUse">
<stop stop-color="white"/>
<stop offset="0.408627" stop-color="white" stop-opacity="0"/>
<stop offset="0.534162" stop-color="white" stop-opacity="0"/>
<stop offset="1" stop-color="white"/>
</linearGradient>
<linearGradient id="paint2_linear_130_831" x1="52.0625" y1="34.5625" x2="17.9375" y2="34.125" gradientUnits="userSpaceOnUse">
<stop stop-color="white"/>
<stop offset="0.408627" stop-color="white" stop-opacity="0"/>
<stop offset="0.534162" stop-color="white" stop-opacity="0"/>
<stop offset="1" stop-color="white"/>
</linearGradient>
<linearGradient id="paint3_linear_130_831" x1="52.0625" y1="34.5625" x2="17.9375" y2="34.125" gradientUnits="userSpaceOnUse">
<stop stop-color="white"/>
<stop offset="0.408627" stop-color="white" stop-opacity="0"/>
<stop offset="0.534162" stop-color="white" stop-opacity="0"/>
<stop offset="1" stop-color="white"/>
</linearGradient>
<linearGradient id="paint4_linear_130_831" x1="52.0625" y1="34.5625" x2="17.9375" y2="34.125" gradientUnits="userSpaceOnUse">
<stop stop-color="white"/>
<stop offset="0.408627" stop-color="white" stop-opacity="0"/>
<stop offset="0.534162" stop-color="white" stop-opacity="0"/>
<stop offset="1" stop-color="white"/>
</linearGradient>
</defs>
</svg>
