<svg width="175" height="64" viewBox="0 0 175 64" fill="none" xmlns="http://www.w3.org/2000/svg">
<path d="M58.4364 19.9385H51.4942C51.4627 19.9475 51.4356 19.9658 51.4176 19.9905L44.9167 30.3534L44.7149 29.9756C44.6967 29.941 42.8754 26.543 41.0784 23.7901C39.2657 20.9843 37.7362 19 34.5447 19C32.0597 19 29.6305 20.3715 29.2645 21.2668C29.2208 21.3631 29.2183 21.3696 29.5308 21.5266C30.1387 21.8329 31.2706 22.4034 31.397 24.9841C31.397 25.0166 31.1721 40.6211 31.1429 42.6854H38.732V29.587L44.2444 38.5935C44.3015 38.5935 44.4109 38.5935 44.5337 38.5935H45.5538C45.6404 38.5984 45.7274 38.5937 45.8128 38.5795C46.0012 38.2547 49.9039 31.6221 51.1744 29.5026V42.6822H58.5446L58.4364 19.9385ZM70.2892 50C65.0138 50 62.7062 46.8412 62.3148 45.7338C61.8929 44.5853 62.0315 44.2854 62.085 44.2183C62.1038 44.1949 62.1357 44.1827 62.1676 44.1869C62.1854 44.1854 62.2034 44.1854 62.2211 44.1869C62.4084 44.215 62.6807 44.4564 62.9956 44.7357C63.8613 45.5043 65.3056 46.7925 68.2831 46.7925C71.5317 46.7925 73.1256 44.766 73.2314 42.8846V38.6715L72.7682 39.5375C70.9579 42.9182 67.9561 43.1812 67.0795 43.1812C65.7953 43.1757 64.5787 42.6683 63.7518 41.7934C62.8327 40.8517 62.3257 39.5202 62.3257 38.0393V33.168C62.3257 31.5604 62.068 30.3946 61.5379 29.6043C61.2188 29.1192 60.7316 28.7394 60.1494 28.5218C60.0423 28.4852 59.9429 28.4329 59.8552 28.367C59.8538 28.3436 59.8588 28.3202 59.8698 28.2988C60.2126 27.4198 62.0072 26.1446 64.0521 26.1446C67.0661 26.1446 69.1706 28.0856 69.1706 30.8644V36.9698C69.1706 38.5329 69.9269 39.0893 70.6357 39.0893C71.8138 39.0893 73.1135 37.6355 73.1585 35.2854V26.7941H80.0034C80.0131 27.6147 80.1128 36.4837 80.1128 40.5756C80.2259 43.4984 79.3286 45.9189 77.5159 47.5892C75.8016 49.1643 73.3031 50 70.2892 50ZM121.209 43.5374C119.993 43.5027 118.942 43.2613 118.081 42.8186C116.561 41.9937 115.722 40.5139 115.722 38.6552V29.377H113.716V26.7573H115.722V24.1225L122.568 21.6143C122.576 22.0906 122.604 24.143 122.604 26.5408V26.7573H127.163V29.3781H122.604V36.8702C122.607 37.2243 122.632 37.5781 122.678 37.93V37.944C123.043 39.9683 124.432 40.2281 125.596 40.2281C125.874 40.2281 126.147 40.213 126.41 40.1978C126.646 40.1848 126.869 40.1729 127.071 40.1729C127.171 40.1729 127.35 40.1859 127.41 40.2747C127.469 40.3634 127.435 40.5247 127.331 40.6979C126.412 42.3434 123.837 43.5363 121.209 43.5374ZM136.893 43.3425C132.99 43.3323 129.473 41.2417 127.967 38.0359C126.46 34.8301 127.257 31.1327 129.988 28.6506C131.853 26.99 134.474 26.0753 137.367 26.0753C143.111 26.0753 145.695 29.2536 145.695 31.5096C145.695 33.2676 144.87 34.5936 143.242 35.4488C141.529 36.3506 139.299 36.54 137.731 36.54C136.657 36.537 135.585 36.4559 134.526 36.2975L134.12 36.2369L134.256 36.5822C134.985 38.4398 136.901 39.505 139.512 39.505C141.295 39.505 143.309 38.993 145.181 38.0642L145.196 38.0577L145.209 38.0479C145.246 38.0207 145.291 38.004 145.339 38.0003C145.358 37.9996 145.376 38.0054 145.39 38.0166C145.444 38.0512 145.493 38.0848 145.416 38.2937V38.3077C145.081 39.4173 142.241 43.3425 136.889 43.3425H136.893ZM136.869 29.3564C136.547 29.4094 136.239 29.5159 135.962 29.6704C134.454 30.4833 134.055 32.5044 133.951 33.6356L133.931 33.8521L134.174 33.8716C134.501 33.8976 134.82 33.9106 135.12 33.9106C136.458 33.9106 137.496 33.6562 138.218 33.1528C138.92 32.6657 139.291 31.9512 139.291 31.0885C139.291 30.6099 139.075 30.1514 138.691 29.8165C138.307 29.4816 137.788 29.2986 137.25 29.3088C137.201 29.3088 137.149 29.3088 137.098 29.3088L136.871 29.3218L136.869 29.3564ZM95.3856 43.2776C92.5978 43.2776 91.0088 41.6603 90.1638 40.3039L89.7042 39.5678V42.6584H82.8265V19.7751H89.7079V30.1672L90.1662 29.4008C91.4611 27.2358 93.3796 26.045 95.568 26.045C100.03 26.045 102.438 30.5017 102.438 34.6943C102.438 36.9622 101.793 39.0753 100.623 40.6481C99.726 41.8411 98.0859 43.2776 95.382 43.2776H95.3856ZM92.4677 30.0915C90.6586 30.0915 89.489 31.8982 89.489 34.6921C89.489 37.5067 90.6586 39.3264 92.4677 39.3264C94.2768 39.3264 95.4464 37.5078 95.4464 34.6921C95.4428 31.8982 94.2744 30.0915 92.4641 30.0915H92.4677ZM105.005 42.6605C105.032 41.9818 105.294 35.1858 105.294 33.0684C105.294 29.3748 104.037 28.761 103.361 28.432C103.093 28.301 103.093 28.301 103.13 28.2014C103.469 27.3224 105.268 26.0428 107.313 26.0428C108.714 26.0428 109.913 26.4759 110.778 27.2986C111.669 28.144 112.139 29.3413 112.139 30.7626V42.6605H105.005ZM107.856 24.7373C105.657 24.7373 103.868 23.4794 103.868 21.9336C103.868 20.3878 105.657 19.1299 107.856 19.1299C110.055 19.1299 111.884 20.4073 111.884 21.9293C111.884 23.4751 110.075 24.7373 107.856 24.7373Z" fill="white"/>
</svg>
