<svg width="175" height="64" viewBox="0 0 175 64" fill="none" xmlns="http://www.w3.org/2000/svg">
<path d="M159 30.3046V27.7972H155.888V23.8991L155.783 23.9314L152.86 24.8262L152.802 24.8437V27.7973H148.189V26.1519C148.189 25.3857 148.36 24.7994 148.698 24.4084C149.033 24.0221 149.512 23.8257 150.123 23.8257C150.563 23.8257 151.018 23.9293 151.476 24.1336L151.591 24.1849V21.5442L151.537 21.5243C151.109 21.3707 150.528 21.2933 149.808 21.2933C148.9 21.2933 148.076 21.491 147.356 21.8827C146.637 22.2749 146.071 22.8349 145.674 23.5468C145.279 24.258 145.078 25.0793 145.078 25.9882V27.7972H142.911V30.3046H145.078V40.8679H148.189V30.3046H152.802V37.0174C152.802 39.7821 154.106 41.1831 156.676 41.1831C157.099 41.1831 157.543 41.1336 157.997 41.0366C158.459 40.937 158.774 40.8376 158.959 40.7314L159 40.7071V38.1765L158.873 38.2602C158.705 38.3728 158.494 38.4648 158.248 38.5332C158 38.6028 157.794 38.6377 157.633 38.6377C157.031 38.6377 156.586 38.4754 156.309 38.155C156.03 37.8317 155.888 37.2664 155.888 36.4755V30.3046H159ZM135.964 38.6381C134.835 38.6381 133.945 38.2635 133.318 37.5257C132.687 36.7841 132.367 35.7267 132.367 34.3834C132.367 32.9974 132.687 31.9126 133.318 31.1579C133.946 30.4082 134.828 30.0277 135.939 30.0277C137.018 30.0277 137.876 30.3911 138.491 31.1084C139.11 31.8295 139.423 32.9055 139.423 34.3077C139.423 35.727 139.128 36.8173 138.547 37.5466C137.969 38.2704 137.1 38.6381 135.964 38.6381ZM136.103 27.4823C133.949 27.4823 132.238 28.1138 131.018 29.3594C129.799 30.6051 129.181 32.329 129.181 34.4836C129.181 36.5301 129.784 38.1762 130.974 39.3755C132.164 40.5751 133.784 41.1828 135.788 41.1828C137.876 41.1828 139.553 40.5424 140.772 39.2796C141.991 38.0182 142.609 36.3106 142.609 34.2063C142.609 32.1278 142.029 30.4694 140.886 29.2782C139.741 28.0864 138.132 27.4823 136.103 27.4823ZM124.165 27.4823C122.7 27.4823 121.488 27.8573 120.562 28.5967C119.63 29.3405 119.158 30.3161 119.158 31.4965C119.158 32.1101 119.26 32.6552 119.46 33.1175C119.662 33.5814 119.975 33.9898 120.39 34.3325C120.802 34.6725 121.438 35.0286 122.281 35.3909C122.989 35.6826 123.518 35.9293 123.853 36.1238C124.182 36.3144 124.414 36.506 124.546 36.6926C124.674 36.8752 124.738 37.1251 124.738 37.4335C124.738 38.3117 124.081 38.739 122.729 38.739C122.227 38.739 121.655 38.6341 121.028 38.4275C120.406 38.2241 119.818 37.9261 119.287 37.544L119.157 37.4513V40.448L119.205 40.47C119.645 40.6733 120.2 40.8448 120.854 40.9796C121.507 41.1147 122.1 41.1834 122.615 41.1834C124.205 41.1834 125.486 40.8066 126.42 40.0627C127.36 39.3138 127.837 38.3153 127.837 37.094C127.837 36.2129 127.58 35.4574 127.075 34.848C126.573 34.2437 125.701 33.6888 124.485 33.1984C123.517 32.8094 122.896 32.4865 122.64 32.2387C122.394 31.9993 122.268 31.6607 122.268 31.2319C122.268 30.8517 122.423 30.5472 122.74 30.3006C123.06 30.0528 123.506 29.9267 124.064 29.9267C124.583 29.9267 125.113 30.0086 125.64 30.1692C126.167 30.3297 126.63 30.5447 127.017 30.8077L127.144 30.8946V28.0521L127.095 28.0311C126.738 27.8781 126.268 27.7473 125.697 27.6411C125.129 27.5355 124.614 27.4823 124.165 27.4823ZM111.048 38.6381C109.919 38.6381 109.029 38.2635 108.402 37.5257C107.77 36.7841 107.451 35.727 107.451 34.3834C107.451 32.9974 107.771 31.9126 108.402 31.1579C109.03 30.4082 109.911 30.0277 111.023 30.0277C112.101 30.0277 112.96 30.3911 113.575 31.1084C114.194 31.8295 114.507 32.9055 114.507 34.3077C114.507 35.727 114.212 36.8173 113.63 37.5466C113.053 38.2704 112.184 38.6381 111.048 38.6381ZM111.187 27.4823C109.032 27.4823 107.321 28.1138 106.102 29.3594C104.883 30.6051 104.264 32.329 104.264 34.4836C104.264 36.531 104.868 38.1762 106.058 39.3755C107.248 40.5751 108.868 41.1828 110.872 41.1828C112.96 41.1828 114.637 40.5424 115.856 39.2796C117.075 38.0182 117.693 36.3106 117.693 34.2063C117.693 32.1278 117.113 30.4694 115.969 29.2782C114.825 28.0864 113.216 27.4823 111.187 27.4823ZM99.5423 30.0608V27.7972H96.4695V40.8677H99.5423V34.1816C99.5423 33.0447 99.7999 32.1107 100.308 31.4052C100.81 30.7082 101.479 30.3549 102.296 30.3549C102.572 30.3549 102.883 30.4006 103.22 30.4909C103.553 30.5807 103.794 30.6782 103.936 30.7809L104.065 30.8745V27.7748L104.015 27.7535C103.729 27.6318 103.324 27.5704 102.812 27.5704C102.04 27.5704 101.349 27.8187 100.757 28.3075C100.238 28.7371 99.8621 29.3262 99.575 30.0608H99.5423ZM90.9666 27.4823C89.5568 27.4823 88.2994 27.7848 87.2299 28.381C86.1581 28.9786 85.3293 29.8318 84.7653 30.9167C84.2039 31.999 83.9188 33.2632 83.9188 34.673C83.9188 35.908 84.1952 37.0413 84.7415 38.0401C85.288 39.0406 86.0616 39.8233 87.0409 40.3662C88.0187 40.9083 89.1489 41.1832 90.4003 41.1832C91.8606 41.1832 93.1074 40.8911 94.1071 40.315L94.1475 40.2918V37.475L94.0183 37.5694C93.5655 37.8994 93.0595 38.1629 92.515 38.3526C91.9719 38.5423 91.4767 38.6381 91.0425 38.6381C89.8368 38.6381 88.8688 38.2606 88.1662 37.5164C87.4621 36.7712 87.1051 35.7248 87.1051 34.4081C87.1051 33.083 87.4774 32.0097 88.2112 31.2178C88.9427 30.4282 89.9125 30.0277 91.0932 30.0277C92.1032 30.0277 93.0874 30.3698 94.0186 31.0457L94.1475 31.1393V28.1714L94.1058 28.1479C93.7554 27.9517 93.2775 27.7896 92.6842 27.6667C92.0934 27.5441 91.5156 27.4823 90.9666 27.4823ZM81.8025 27.7973H78.7297V40.8677H81.8025V27.7973ZM80.2975 22.2293C79.7918 22.2293 79.3507 22.4015 78.9883 22.7429C78.6244 23.0852 78.4398 23.5162 78.4398 24.0249C78.4398 24.5255 78.6221 24.9487 78.9826 25.2819C79.3407 25.6141 79.7832 25.7826 80.2976 25.7826C80.8119 25.7826 81.2561 25.6141 81.6185 25.2824C81.9832 24.9487 82.1682 24.5257 82.1682 24.0249C82.1682 23.534 81.9882 23.1074 81.6335 22.7567C81.2791 22.4066 80.8295 22.2293 80.2975 22.2293ZM72.6306 26.833V40.8677H75.7666V22.6294H71.4262L65.9094 36.1762L60.5557 22.6294H56.0386V40.8675H58.9856V26.8316H59.0868L64.7402 40.8677H66.9642L72.5294 26.833H72.6306Z" fill="white"/>
<path d="M30.9589 30.9984H16.5034V16.5347H30.9589V30.9984Z" fill="white"/>
<path d="M46.9194 30.9984H32.4641V16.5347H46.9194V30.9984Z" fill="white"/>
<path d="M30.9585 46.9735H16.5034V32.51H30.9585V46.9735Z" fill="white"/>
<path d="M46.9194 46.9735H32.4641V32.51H46.9194V46.9735Z" fill="white"/>
</svg>
