<svg width="175" height="64" viewBox="0 0 175 64" fill="none" xmlns="http://www.w3.org/2000/svg">
<path d="M40.0409 52.0899C39.5444 52.2873 39.2631 52.0406 39.4286 51.5306L40.8352 47.0063C41.0108 46.3919 41.0725 45.7508 41.0172 45.1144L38.0054 16.5872C37.9918 16.4614 38.0039 16.3341 38.041 16.2131C38.0781 16.092 38.1395 15.9797 38.2214 15.8829C38.3034 15.786 38.4042 15.7067 38.5178 15.6496C38.6314 15.5925 38.7555 15.5589 38.8825 15.5508L137.046 9.003C137.167 8.99266 137.289 9.0091 137.404 9.05116C137.518 9.09322 137.621 9.15985 137.707 9.24629C137.792 9.33273 137.857 9.43686 137.898 9.55122C137.938 9.66558 137.952 9.78736 137.939 9.90785L133.951 53.0935C133.923 53.3526 133.795 53.591 133.595 53.7594C133.395 53.9278 133.137 54.0133 132.876 53.9983L49.4733 48.668C48.8299 48.6484 48.189 48.7546 47.5868 48.9805L40.0409 52.0899ZM85.0351 28.235C83.9264 28.235 83.0494 28.5805 82.404 29.2386V24.5992H80.3189V34.2728C80.3189 35.6876 80.7492 36.8557 81.5931 37.7276C82.4371 38.5995 83.5955 39.0437 85.0517 39.0437C86.5079 39.0437 87.6828 38.5995 88.5268 37.7276C89.3707 36.8557 89.801 35.6876 89.801 34.2728V33.1047C89.7844 29.8802 88.1958 28.235 85.0351 28.235ZM85.0351 30.2586C85.9122 30.2586 86.5741 30.4724 87.0209 30.9166C87.4677 31.3608 87.6994 32.1011 87.6994 33.1211V34.2892C87.6994 35.1447 87.4677 35.8028 86.9878 36.3128C86.5079 36.8228 85.8791 37.0531 85.0351 37.0531C84.1912 37.0531 83.5458 36.8063 83.099 36.3128C82.6522 35.8192 82.404 35.1447 82.404 34.2892V33.1047C82.404 32.0847 82.6357 31.3444 83.0659 30.9002C83.4962 30.456 84.1746 30.2586 85.0351 30.2586ZM100.177 30.5547H93.574V24.5663H91.4227V38.9286H93.574V32.644H100.177V38.9286H102.344V24.5663H100.177V30.5547ZM118.694 28.235C117.585 28.235 116.708 28.5805 116.063 29.2386V24.5992H113.978V34.2728C113.978 35.6876 114.408 36.8557 115.252 37.7276C116.096 38.5995 117.254 39.0437 118.711 39.0437C120.167 39.0437 121.342 38.5995 122.186 37.7276C123.03 36.8557 123.46 35.6876 123.46 34.2728V33.1047C123.443 29.8802 121.838 28.235 118.694 28.235ZM118.694 30.2586C119.571 30.2586 120.233 30.4724 120.68 30.9166C121.127 31.3608 121.358 32.1011 121.358 33.1211V34.2892C121.358 35.1282 121.127 35.8192 120.647 36.3128C120.167 36.8063 119.521 37.0531 118.694 37.0531C117.867 37.0531 117.205 36.8063 116.758 36.3128C116.311 35.8192 116.063 35.1447 116.063 34.2892V33.1047C116.063 32.0847 116.294 31.3444 116.725 30.9002C117.155 30.456 117.833 30.2586 118.694 30.2586ZM76.6122 34.174C76.6122 35.2434 76.4467 36.0166 76.1323 36.4279C75.8178 36.8392 75.3049 37.0366 74.5271 37.0366H74.4609C73.6997 37.0366 73.1536 36.8228 72.8557 36.4279C72.5413 36.0002 72.3758 35.2434 72.3758 34.174V28.5147H70.3239V34.174C70.3239 35.9015 70.6383 37.1683 71.2837 37.9086C71.8959 38.6325 72.8888 39.0108 74.2458 39.0437H74.7257C76.0826 39.0108 77.0755 38.6325 77.6878 37.9086C78.3166 37.1518 78.6476 35.9015 78.6476 34.174V28.5147H76.6122V34.174ZM110.271 34.174C110.271 35.2434 110.105 36.0002 109.791 36.4279C109.493 36.8228 108.964 37.0366 108.202 37.0366H108.103C107.342 37.0366 106.796 36.8228 106.498 36.4279C106.184 36.0002 106.018 35.2434 106.018 34.174V28.5147H103.966V34.174C103.966 35.9015 104.281 37.1683 104.926 37.9086C105.538 38.6325 106.531 39.0108 107.888 39.0437H108.384C109.741 39.0108 110.734 38.6325 111.347 37.9086C111.959 37.1847 112.306 35.9015 112.306 34.174V28.5147H110.254V34.174H110.271ZM60.031 31.1469L55.0169 29.4853C54.7206 29.3933 54.449 29.2358 54.2226 29.0247C54.1402 28.9551 54.0728 28.8697 54.0245 28.7735C53.9762 28.6774 53.9479 28.5726 53.9413 28.4653V28.1363C53.9413 26.9682 54.9176 26.376 56.9199 26.3431H57.102C59.1043 26.3431 60.1303 26.8695 60.2461 27.9389L60.2626 28.1034H62.4139V27.9224C62.3146 25.4876 60.5274 24.2372 57.102 24.2372H56.8868C53.5276 24.2701 51.8397 25.5863 51.8397 28.1363V28.4653C51.8336 29.1431 52.0679 29.8013 52.5016 30.3244C52.9318 30.8344 53.5772 31.2292 54.3881 31.4924L59.3525 33.154C60.1964 33.4337 60.6101 33.8944 60.6101 34.5853V34.8815C60.6101 35.4902 60.3123 35.9508 59.7 36.3128C59.0877 36.6747 58.1776 36.8721 57.0523 36.8721C55.927 36.8721 55.05 36.6912 54.4377 36.3128C53.8254 35.9344 53.5607 35.4902 53.5607 34.8815V34.6676H51.426V34.8815C51.4117 35.4649 51.5415 36.0429 51.804 36.5649C52.0665 37.0869 52.4538 37.537 52.9318 37.8757C53.9247 38.5995 55.2982 38.9779 57.0523 38.9779C58.8064 38.9779 60.2295 38.616 61.2059 37.8757C61.6866 37.5395 62.0758 37.09 62.3387 36.5674C62.6015 36.0448 62.7297 35.4655 62.7118 34.8815V34.5853C62.7298 33.8044 62.4721 33.0419 61.9836 32.4302C61.4688 31.8265 60.7914 31.3813 60.031 31.1469ZM67.1466 36.3292C66.6833 35.8357 66.4516 35.1611 66.4516 34.3057V30.6205H68.6856V28.5147H66.4516V24.5992H64.3666V34.3057C64.3666 35.7205 64.7968 36.8886 65.6408 37.7605C66.3993 38.5206 67.4122 38.9773 68.487 39.0437L68.6856 39.0602V37.0531L68.5367 37.0366C68.0069 36.9618 67.5175 36.7127 67.1466 36.3292ZM122.93 27.9389H123.195V28.6956H123.327V27.9389H123.592V27.8402H122.93V27.9389ZM124.138 28.4489L123.907 27.8402H123.708V28.6956H123.824V27.9882L124.105 28.6956H124.188L124.453 27.9882V28.6956H124.585V27.8402H124.37L124.138 28.4489Z" fill="white"/>
</svg>
