<svg width="175" height="64" viewBox="0 0 175 64" fill="none" xmlns="http://www.w3.org/2000/svg">
<path d="M74.1364 33.8464C71.0175 33.8464 70.9632 37.2536 70.2249 37.2536C70.0712 37.2536 69.9492 37.1179 69.9492 36.931C69.9492 36.6822 70.014 36.4666 70.014 36.0641C70.014 34.8415 69.1536 33.8464 67.35 33.8464C65.8192 33.8464 64.6981 34.6138 64.0141 36.0325C63.6675 36.7516 63.6977 37.2521 63.3466 37.2521C63.217 37.2521 63.1161 37.13 63.1161 36.9536C63.1161 36.432 63.5756 35.9556 63.5756 34.8354C63.5756 34.5445 63.553 34.2987 63.5063 34.0982H60.541V45.6072H64.5671V39.3627C64.5671 38.1325 65.0944 37.3441 65.994 37.3441C66.5906 37.3441 67.121 37.8657 67.121 38.82V45.6072H71.147V39.3627C71.147 37.9803 71.7859 37.3441 72.5739 37.3441C73.2339 37.3441 73.701 37.9546 73.701 38.82V45.6072H77.6803V38.5411C77.6803 35.4535 76.4553 33.8449 74.1379 33.8449L74.1364 33.8464Z" fill="white"/>
<path d="M101.672 30.8765H97.693V45.6072H101.672V30.8765Z" fill="white"/>
<path d="M102.985 39.7155C102.985 43.6308 105.518 45.8846 108.805 45.8846C110.69 45.8846 112.131 45.1384 113.015 44.4117V40.6141C112.12 41.2261 110.743 41.9257 109.265 41.9257C107.421 41.9257 106.458 41.1598 106.458 39.8316C106.458 38.5034 107.568 37.7602 109.196 37.7602C110.669 37.7602 112.021 38.3466 113.014 39.0266V34.9982C112.173 34.3726 110.689 33.8238 108.804 33.8238C105.275 33.8238 102.983 36.031 102.983 39.717L102.985 39.7155Z" fill="white"/>
<path d="M121.78 33.869C120.162 33.869 119.224 34.6198 118.536 36.0098C118.233 36.6234 118.21 37.2295 117.868 37.2295C117.74 37.2295 117.638 37.1104 117.638 36.931C117.638 36.2933 118.397 35.342 118.397 32.5348C118.397 31.8293 118.328 31.285 118.191 30.9006H114.718V45.6087H118.744V39.414C118.744 38.2531 119.354 37.3682 120.285 37.3682C120.978 37.3682 121.459 37.932 121.459 38.8441V45.6087H125.485V38.4039C125.485 35.3978 124.174 33.869 121.781 33.869H121.78Z" fill="white"/>
<path d="M158.726 33.8238C156.946 33.8238 156.037 34.8384 155.53 35.7762C155.127 36.5179 155.069 37.231 154.724 37.231C154.555 37.231 154.47 37.1315 154.47 36.9325C154.47 36.5797 154.93 35.9812 154.93 34.9998C154.93 34.6002 154.898 34.3017 154.838 34.1027H151.825V48.5576H155.873V44.0167C156.387 45.1142 157.463 45.8409 158.933 45.8409C161.585 45.8409 163.396 43.6519 163.396 39.8331C163.396 36.3099 161.718 33.8253 158.727 33.8253L158.726 33.8238ZM157.644 43.192C156.832 43.192 155.941 42.3493 155.941 40.2221C155.941 38.3692 156.669 37.2762 157.644 37.2762C158.765 37.2762 159.391 38.3572 159.391 40.2221C159.391 42.295 158.67 43.192 157.644 43.192Z" fill="white"/>
<path d="M84.8736 33.8238C82.7943 33.8238 80.8897 34.3379 79.5668 34.9967V38.33C81.1067 37.4978 82.6858 36.8812 84.0705 36.8812C85.5531 36.8812 86.1814 37.6637 86.0925 38.6934C85.4944 38.6316 84.8299 38.6059 84.0238 38.6059C80.8747 38.6059 78.9008 39.8361 78.9008 42.5136C78.9008 44.7132 80.6125 45.8469 82.4854 45.8469C84.3583 45.8469 85.5697 44.9725 86.2975 43.6549C86.7118 42.9041 86.6772 42.4443 86.9469 42.4443C87.0795 42.4443 87.1714 42.5393 87.1714 42.687C87.1714 43.1679 87.0343 43.4483 87.0343 44.0996C87.0343 44.7087 87.1141 45.2213 87.2407 45.5936H90.1352V39.4321C90.1352 35.933 88.535 33.8223 84.8736 33.8223V33.8238ZM83.5175 43.0187C82.7702 43.0187 82.3694 42.6915 82.3694 42.1216C82.3694 41.3799 83.067 40.8115 84.8736 40.8115C85.2714 40.8115 85.6315 40.8251 85.9584 40.8523C85.7987 41.9121 84.8766 43.0187 83.5175 43.0187Z" fill="white"/>
<path d="M99.2269 23.2526V16.7955H96.456V22.9224C96.456 24.4405 95.4404 25.4552 94.1069 25.4552C92.7735 25.4552 91.7579 24.439 91.7579 22.9224V16.7955H88.9915L89.0066 23.2526C89.0066 26.0642 91.2562 28.1206 94.1145 28.1206C96.9728 28.1206 99.2269 26.0688 99.2269 23.2526Z" fill="white"/>
<path d="M109.928 27.8975H112.694V19.3886H115.995V16.7955H106.623V19.3886H109.928V27.8975Z" fill="white"/>
<path d="M104.835 16.8H102.069V27.902H104.835V16.8Z" fill="white"/>
<path d="M81.1323 27.8975H83.8987V19.3886H87.1985V16.7955H77.8265V19.3886H81.1323V27.8975Z" fill="white"/>
<path d="M63.3074 22.3525V16.8H60.541V27.9005H63.3074V22.3525Z" fill="white"/>
<path d="M68.9141 21.7706C68.9141 20.2524 69.9296 19.2378 71.2631 19.2378C72.5966 19.2378 73.6121 20.2539 73.6121 21.7706V27.8975H76.3785L76.371 21.4404C76.3695 18.6272 74.1169 16.5724 71.2586 16.5724C68.4003 16.5724 66.1462 18.6242 66.1462 21.4404V27.8975H68.9126V21.7706H68.9141Z" fill="white"/>
<path d="M146.602 33.8464C143.483 33.8464 143.429 37.2536 142.691 37.2536C142.537 37.2536 142.415 37.1179 142.415 36.931C142.415 36.6822 142.48 36.4666 142.48 36.0641C142.48 34.8415 141.619 33.8464 139.816 33.8464C138.285 33.8464 137.164 34.6138 136.48 36.0325C136.133 36.7516 136.163 37.2521 135.812 37.2521C135.683 37.2521 135.582 37.13 135.582 36.9536C135.582 36.432 136.041 35.9556 136.041 34.8354C136.041 34.5445 136.019 34.2987 135.972 34.0982H133.004V45.6072H137.03V39.3627C137.03 38.1325 137.557 37.3441 138.457 37.3441C139.053 37.3441 139.584 37.8657 139.584 38.82V45.6072H143.61V39.3627C143.61 37.9803 144.249 37.3441 145.037 37.3441C145.697 37.3441 146.164 37.9546 146.164 38.82V45.6072H150.143V38.5411C150.143 35.4535 148.918 33.8449 146.601 33.8449L146.602 33.8464Z" fill="white"/>
<path d="M129.187 34.9048C128.343 34.9048 127.676 34.7827 127.186 34.5369V45.6087H131.165V34.5369C130.649 34.7646 130.034 34.9048 129.187 34.9048Z" fill="white"/>
<path d="M129.165 30.8086C127.519 30.8086 126.657 31.5368 126.657 32.3735C126.657 33.2751 127.677 33.9384 129.165 33.9384C130.652 33.9384 131.672 33.2751 131.672 32.3735C131.672 31.5368 130.808 30.8086 129.165 30.8086Z" fill="white"/>
<path d="M93.9321 34.9048C93.0883 34.9048 92.4208 34.7827 91.9312 34.5369V45.6087H95.9105V34.5369C95.3937 34.7646 94.7789 34.9048 93.9321 34.9048Z" fill="white"/>
<path d="M93.9095 30.8086C92.2641 30.8086 91.4023 31.5368 91.4023 32.3735C91.4023 33.2751 92.4224 33.9384 93.9095 33.9384C95.3967 33.9384 96.4168 33.2751 96.4168 32.3735C96.4168 31.5368 95.5534 30.8086 93.9095 30.8086Z" fill="white"/>
<path fill-rule="evenodd" clip-rule="evenodd" d="M52.1852 44.3695C52.6837 43.1039 52.9718 41.7652 53.0383 40.4065C53.0383 38.736 52.093 38.0436 51.4911 38.0436L51.4788 37.9997L51.4788 37.9997L51.4787 37.9995L51.4787 37.9994C51.4405 37.8626 51.332 37.4744 51.1897 37.0192C51.0959 36.7151 50.9847 36.4167 50.8564 36.1255C51.349 35.4446 51.5575 34.5987 51.4377 33.7667C51.3392 33.1252 51.0343 32.5333 50.5694 32.0807C49.6869 31.3312 48.6338 30.8101 47.5028 30.5632C47.437 30.5448 47.3129 30.5106 47.1825 30.4746L47.181 30.4742L47.1803 30.474C46.9735 30.4169 46.7516 30.3557 46.7215 30.3465C46.7202 30.3364 46.7158 30.1535 46.7092 29.883L46.7092 29.8825L46.7092 29.8817C46.6947 29.2851 46.6698 28.2637 46.6466 27.73C46.632 26.9517 46.516 26.1786 46.3017 25.4302C46.0353 24.3563 45.4845 23.374 44.7074 22.5867C46.6531 20.5715 47.8678 18.3516 47.8649 16.4473C47.8593 12.7849 43.3576 11.6767 37.8101 13.9719L37.7876 13.9814C37.6253 14.0502 36.6423 14.4666 36.6347 14.4705C36.6295 14.4654 34.5097 12.3874 34.4778 12.3595C28.153 6.84752 8.37715 28.8096 14.6999 34.1435L16.0816 35.313C15.7088 36.3127 15.5771 37.3864 15.6974 38.4466C15.8847 39.9891 16.6467 41.404 17.8313 42.4088C18.981 43.4529 20.4664 44.0505 22.0185 44.0933C24.479 49.7584 30.1006 53.2335 36.6922 53.4292C43.7629 53.639 49.6983 50.3241 52.1852 44.3695ZM53.6365 37.6652C54.2422 38.4474 54.5539 39.4177 54.517 40.4065C54.4534 41.9488 54.131 43.4695 53.5635 44.9048L53.5501 44.9385C52.267 48.0255 50.0269 50.6186 47.1598 52.3356C44.1756 54.0723 40.7756 54.9643 37.3237 54.9162C37.1003 54.9162 36.8727 54.9127 36.6484 54.9061C33.2415 54.8349 29.9157 53.8527 27.0163 52.0613C24.4641 50.4611 22.3988 48.1919 21.0445 45.5002C19.4842 45.2577 18.0276 44.5681 16.8506 43.5149C15.3874 42.2641 14.45 40.5066 14.226 38.5941C14.1262 37.6648 14.1801 36.7254 14.3854 35.8137L13.7439 35.2709C13.2247 34.8222 12.8027 34.2719 12.504 33.654C12.2053 33.036 12.0361 32.3634 12.007 31.6775C11.9543 30.2538 12.2002 28.8349 12.7289 27.5121C14.0457 23.915 17.0749 19.6318 20.8327 16.0542C22.5096 14.426 24.3698 12.9982 26.3759 11.7995C28.0492 10.7287 29.9709 10.1094 31.9541 10.0018C33.2333 9.96837 34.4792 10.4118 35.4499 11.2461C35.5053 11.2944 36.3357 12.1071 36.9656 12.7244C37.1237 12.6577 37.2374 12.6097 37.2407 12.6084C39.1041 11.7963 41.1067 11.3516 43.1385 11.2988C46.9033 11.2988 49.3389 13.3188 49.3437 16.4451C49.3466 18.3741 48.4001 20.5365 46.6551 22.6299C47.1298 23.3644 47.489 24.1675 47.7199 25.0112C47.9678 25.8748 48.1036 26.7668 48.1239 27.6651C48.1408 28.0516 48.1581 28.6717 48.1721 29.219C49.4595 29.5451 50.6492 30.1772 51.6402 31.0618C52.312 31.7287 52.7526 32.5935 52.8974 33.5293C53.0429 34.453 52.9002 35.3991 52.4889 36.2388C52.5255 36.3439 52.5636 36.4581 52.6015 36.5791C52.6344 36.6846 52.6655 36.7863 52.6946 36.8828C53.057 37.0791 53.377 37.345 53.6365 37.6652ZM21.6547 33.307C21.3234 33.2903 20.9913 33.3128 20.6653 33.374C20.1214 33.4618 19.6004 33.657 19.1327 33.9483C18.6649 34.2396 18.2598 34.6211 17.9409 35.0706C17.622 35.5201 17.3956 36.0286 17.2751 36.5665C17.1546 37.1044 17.1422 37.6609 17.2388 38.2036C17.4758 40.4419 19.8608 42.3293 22.0686 42.3855C22.2952 42.3912 22.5218 42.3762 22.7457 42.3405C25.1348 41.9535 25.7603 39.4902 25.3665 37.0706C24.9216 34.3387 22.9756 33.3756 21.6547 33.307ZM23.9957 39.7796C23.8949 39.9307 23.7549 40.0515 23.5907 40.1291C23.4266 40.2068 23.2444 40.2383 23.0637 40.2204C22.7461 40.1952 22.4499 40.0502 22.2351 39.8147C22.0203 39.5792 21.9031 39.2708 21.907 38.9521C21.9015 38.5273 21.9833 38.1059 22.1475 37.7141C22.25 37.4652 22.2598 37.1877 22.1753 36.9322C22.0907 36.6766 21.9172 36.4599 21.6865 36.3215C21.403 36.1456 21.0629 36.0853 20.7362 36.1531C20.4199 36.2139 20.1404 36.3972 19.9585 36.6633C19.8357 36.8618 19.7399 37.0758 19.6735 37.2997C19.6606 37.3389 19.6503 37.3696 19.6425 37.3897C19.5343 37.6659 19.3615 37.7466 19.2447 37.7316C19.2017 37.7237 19.1619 37.7036 19.1299 37.6737C19.098 37.6438 19.0754 37.6053 19.0647 37.5629C19.0041 37.1942 19.0325 36.8163 19.1475 36.4607C19.2625 36.1052 19.4608 35.7823 19.7258 35.519C19.9567 35.2885 20.237 35.1138 20.5455 35.0082C20.8541 34.9025 21.1826 34.8687 21.5062 34.9093C21.8459 34.9502 22.1707 35.0732 22.4523 35.2677C22.734 35.4622 22.964 35.7224 23.1227 36.0258C23.2753 36.3909 23.3371 36.7876 23.3026 37.1819C23.2682 37.5762 23.1385 37.9562 22.9248 38.2893L22.9245 38.2899C22.8976 38.3473 22.873 38.3998 22.852 38.4468C22.7751 38.5773 22.7327 38.7252 22.7287 38.8766C22.7247 39.028 22.7593 39.1779 22.8291 39.3123C22.8906 39.3942 22.9709 39.4602 23.0631 39.5046C23.1554 39.549 23.257 39.5706 23.3594 39.5676C23.4571 39.5663 23.5543 39.5533 23.6489 39.5289C23.7716 39.5018 23.8985 39.4738 23.9758 39.5658C24.0014 39.5946 24.0171 39.631 24.0207 39.6694C24.0243 39.7079 24.0156 39.7464 23.9957 39.7796ZM41.0652 20.6967C41.137 20.737 41.086 20.8756 41.0058 20.8572C38.7178 20.342 36.3432 20.3483 34.058 20.8758C32.0335 21.3318 30.1173 22.1781 28.4163 23.3673C28.4021 23.3775 28.3847 23.3822 28.3674 23.3803C28.35 23.3785 28.3339 23.3704 28.3222 23.3574C28.3104 23.3445 28.3038 23.3277 28.3037 23.3103C28.3035 23.2928 28.3097 23.2759 28.3212 23.2627C29.789 21.5339 31.56 20.0879 33.5472 18.9959C33.5601 18.9892 33.5748 18.9868 33.5892 18.9891C33.6035 18.9914 33.6168 18.9982 33.627 19.0086C33.6372 19.019 33.6437 19.0324 33.6457 19.0468C33.6477 19.0613 33.645 19.0759 33.6381 19.0887C33.4266 19.461 33.2635 19.8588 33.1526 20.2724C33.1496 20.2862 33.1507 20.3006 33.1559 20.3138C33.1611 20.327 33.1701 20.3383 33.1818 20.3463C33.1935 20.3542 33.2073 20.3585 33.2215 20.3586C33.2356 20.3586 33.2495 20.3544 33.2612 20.3465C34.6373 19.4444 36.2113 18.8892 37.8485 18.7283C37.8638 18.7274 37.8791 18.7315 37.892 18.7399C37.9049 18.7482 37.9147 18.7605 37.9201 18.7749C37.9255 18.7893 37.9262 18.8051 37.922 18.8199C37.9178 18.8347 37.909 18.8478 37.8969 18.8572C37.6256 19.0657 37.383 19.309 37.1752 19.5809C37.1675 19.5912 37.1628 19.6034 37.1616 19.6162C37.1604 19.629 37.1628 19.6419 37.1684 19.6535C37.1741 19.665 37.1829 19.6748 37.1937 19.6816C37.2046 19.6885 37.2171 19.6923 37.23 19.6925C38.5671 19.7377 39.8774 20.0808 41.0652 20.6967ZM35.1532 15.2471C35.1532 15.2471 33.4318 13.253 32.9122 13.1059C29.7151 12.2428 22.809 17.0014 18.3995 23.2885C16.6153 25.8323 14.0612 30.3371 15.2825 32.654C15.7166 33.1742 16.2059 33.6456 16.7419 34.0599C17.5602 32.9123 18.7918 32.1273 20.1771 31.8703C21.9157 27.0069 24.9676 22.7208 28.9939 19.4882C30.926 17.9061 32.9862 16.4875 35.1532 15.2471ZM36.5178 42.4846C36.2569 42.2109 36.0747 41.8717 35.9906 41.503C40.0449 42.7614 42.5978 41.5718 42.5978 41.5718C42.6213 41.561 42.6409 41.5433 42.6539 41.5209C42.6669 41.4986 42.6727 41.4727 42.6704 41.447C42.6689 41.4316 42.6643 41.4168 42.6571 41.4032C42.6498 41.3896 42.6399 41.3776 42.628 41.3678C42.6161 41.3581 42.6024 41.3508 42.5876 41.3464C42.5729 41.3419 42.5574 41.3404 42.5421 41.342C40.3655 41.6032 38.158 41.3779 36.079 40.6822C36.3539 39.7856 36.9953 39.8699 37.9502 39.9953H37.9503C38.1833 40.0259 38.4351 40.059 38.7047 40.0809C40.8412 40.2078 42.9838 39.9753 45.0434 39.393C46.721 38.912 48.2978 38.1321 49.6981 37.0909C50.006 37.8149 50.2249 38.5735 50.3502 39.3502C50.5895 39.3147 50.8339 39.3598 51.0447 39.4785C51.3434 39.6645 51.5627 40.0514 51.4129 41.0509C51.1464 42.7478 50.3863 44.326 49.2311 45.5902C49.1875 45.6361 49.1433 45.6815 49.0986 45.7265C48.2743 46.6216 47.2929 47.3577 46.203 47.8983C45.5964 48.2181 44.9638 48.4861 44.3122 48.6996C39.3352 50.331 34.2409 48.5376 32.5987 44.6862C32.4655 44.392 32.3554 44.0879 32.2695 43.7765C31.9075 42.48 31.8782 41.113 32.1843 39.8021C32.4905 38.4912 33.1221 37.2788 34.0208 36.277V36.2759C34.1522 36.1622 34.235 36.0023 34.2521 35.8293C34.236 35.6733 34.1737 35.5257 34.0733 35.4052C33.9444 35.2177 33.7526 35.0039 33.5313 34.7573C32.6371 33.7609 31.2626 32.2292 31.6247 29.7288C31.7482 28.7197 32.2299 27.7885 32.9819 27.1048C33.7339 26.421 34.7064 26.0303 35.7221 26.0036C35.8427 26.0098 35.9635 26.017 36.084 26.0242L36.0841 26.0242L36.1835 26.0301C36.5602 26.0526 36.914 26.0874 37.2515 26.1207L37.2515 26.1207L37.2515 26.1207C37.6209 26.1571 37.9708 26.1916 38.3101 26.2058C38.8925 26.2577 39.4793 26.1886 40.0338 26.0028C40.5882 25.8171 41.0984 25.5187 41.5321 25.1264C41.8669 24.7786 42.2954 24.5355 42.7656 24.4266C42.9191 24.3863 43.0782 24.3706 43.2367 24.3803C43.4472 24.3884 43.653 24.4393 43.842 24.529C43.8756 24.5478 43.9086 24.568 43.9409 24.5894C44.868 25.2135 44.9997 26.7252 45.0477 27.8311C45.0749 28.4622 45.1505 29.9896 45.1763 30.428C45.2353 31.4305 45.4957 31.5718 46.0228 31.7474C46.2605 31.8265 46.4846 31.8896 46.7732 31.9709L46.7734 31.9709L46.7748 31.9713C46.8455 31.9912 46.9201 32.0122 46.9997 32.0348C47.8874 32.2152 48.7167 32.6125 49.4136 33.1914C49.6512 33.427 49.8056 33.7335 49.8536 34.0647C49.8747 34.3933 49.823 34.7225 49.7021 35.0288C49.5812 35.335 49.3942 35.6108 49.1543 35.8363L49.1745 35.8828C48.6262 36.4578 47.7756 37.0448 46.5725 37.6053C43.8948 38.7831 40.9601 39.2544 38.0486 38.9742C37.8691 38.9542 37.2304 38.8816 37.2282 38.8813C35.3552 38.6281 34.2868 41.0574 35.4109 42.7217C36.1354 43.7943 38.1087 44.4924 40.083 44.4927C44.6098 44.4934 48.0892 42.5532 49.3834 40.8777C49.4206 40.8302 49.4551 40.7807 49.487 40.7295C49.5507 40.6333 49.4982 40.5801 49.4189 40.6346C48.3613 41.3608 43.6645 44.2437 38.6405 43.3764C38.2425 43.3059 37.8516 43.1993 37.4728 43.0581C37.1087 42.9565 36.7787 42.7584 36.5178 42.4846ZM42.2067 34.0974C42.0461 34.1241 41.8814 34.0907 41.7439 34.0036C41.39 33.8384 41.2059 33.5056 41.3327 33.2603C41.4346 33.1333 41.5797 33.0484 41.7403 33.0216C41.9008 32.9948 42.0656 33.0282 42.2031 33.1153C42.557 33.2806 42.741 33.6134 42.6143 33.8588C42.5123 33.9858 42.3672 34.0707 42.2067 34.0974ZM43.3652 31.2443C43.0973 30.8829 42.9142 30.4659 42.8293 30.024C42.6294 29.1143 42.65 28.4551 43.2092 28.3693C43.7686 28.2837 44.0393 28.8344 44.2393 29.7441C44.3745 30.2372 44.3604 30.7593 44.1986 31.2443C43.9218 31.2103 43.6419 31.2103 43.3652 31.2443ZM43.5897 32.1274C43.7279 32.0781 43.8781 32.0734 44.0192 32.1139C44.1762 32.1406 44.3167 32.227 44.4115 32.355C44.5063 32.4831 44.5479 32.6428 44.5276 32.8008C44.5252 32.9477 44.4768 33.09 44.3894 33.2079C44.3019 33.3258 44.1797 33.4134 44.04 33.4582C43.9003 33.5031 43.75 33.503 43.6103 33.458C43.4706 33.413 43.3485 33.3253 43.2612 33.2073C43.1739 33.0893 43.1257 32.9469 43.1234 32.8001C43.1211 32.6533 43.1649 32.5095 43.2485 32.3888C43.3321 32.2681 43.4515 32.1767 43.5897 32.1274ZM34.7331 32.0326C34.6439 32.02 34.6059 31.9818 34.5947 31.9312C34.56 31.7743 34.8013 31.516 35.0556 31.3295C35.4267 31.058 35.8614 30.8866 36.3179 30.8318C36.7744 30.777 37.2373 30.8406 37.6621 31.0165C38.059 31.1803 38.4004 31.4552 38.6452 31.8081C38.7361 31.9565 38.7537 32.0716 38.6949 32.1319C38.6083 32.2233 38.395 32.1294 38.0509 31.978L37.9896 31.951C37.5328 31.7268 37.0281 31.618 36.5196 31.6342C35.9172 31.7334 35.3207 31.8664 34.7331 32.0326ZM38.5226 32.8132C38.3583 32.6404 38.1538 32.5111 37.9273 32.4368C37.7008 32.3625 37.4594 32.3456 37.2248 32.3875C36.8788 32.4244 36.551 32.5611 36.2812 32.781C36.1556 32.8713 36.0692 33.0063 36.0398 33.1583C36.0391 33.1752 36.0422 33.192 36.0487 33.2076C36.0553 33.2232 36.0651 33.2372 36.0777 33.2485C36.1 33.2688 36.1291 33.2799 36.1592 33.2795C36.2837 33.2613 36.4054 33.2275 36.5215 33.179C37.0298 32.9874 37.579 32.9303 38.1158 33.0134L38.1341 33.0154C38.3704 33.042 38.4835 33.0548 38.5367 32.9715C38.5507 32.9468 38.5568 32.9184 38.5543 32.8901C38.5518 32.8619 38.5408 32.835 38.5226 32.8132Z" fill="white"/>
</svg>
