<svg width="175" height="64" viewBox="0 0 175 64" fill="none" xmlns="http://www.w3.org/2000/svg">
<path fill-rule="evenodd" clip-rule="evenodd" d="M65.3929 22.4287C65.3929 21.1002 64.3141 20 62.9656 20C61.6378 20 60.5798 21.0794 60.5798 22.4287C60.5798 23.7572 61.6586 24.8158 62.9656 24.8158C64.3141 24.8158 65.3929 23.7572 65.3929 22.4287ZM107.134 21.6814H103.545V43.7056H107.134V21.6814ZM43.6094 29.1956L43.9621 28.7805C45.0616 27.4935 46.6798 26.85 48.8997 26.8085V29.8807C45.4973 29.9637 43.6301 31.7904 43.6301 35.0701V43.6847H40.041V27.0368H43.6094V29.1956ZM28.7757 29.7562C31.7631 29.7562 34.0245 32.1641 34.0245 35.3608C34.0245 38.5576 31.7631 40.9655 28.7757 40.9655C25.8297 40.9655 23.6099 38.5576 23.6099 35.3608C23.5891 32.1641 25.8297 29.7562 28.7757 29.7562ZM20 35.3608C20 40.3635 23.7758 44.1207 28.7549 44.1207C32.0328 44.1207 34.0037 41.8166 34.0037 41.8166V43.664H37.5928V35.3401C37.5928 30.3374 33.7963 26.5803 28.7549 26.5803C23.7758 26.601 20 30.379 20 35.3608ZM64.6874 27.037H61.0983V43.6848H64.6874V27.037ZM70.1853 35.3816C70.1853 38.5783 72.4051 40.9862 75.3511 40.9862C77.3428 40.9862 79.0439 39.9276 79.936 38.1839H83.7533C82.6123 41.8166 79.3344 44.1414 75.3511 44.1414C70.3513 44.1414 66.5962 40.3843 66.5962 35.3816C66.5962 30.3997 70.3513 26.6218 75.3511 26.6218C79.4796 26.6218 82.7783 29.0712 83.8363 32.8907H80.0813C79.2307 30.9394 77.4672 29.777 75.3511 29.777C72.4051 29.777 70.1853 32.1849 70.1853 35.3816ZM141.656 33.7417L141.739 33.4926C142.444 31.1885 144.332 29.777 146.635 29.777C148.979 29.777 150.888 31.2093 151.593 33.4926L151.676 33.7417H141.656ZM146.635 26.601C141.635 26.601 137.88 30.379 137.88 35.3609C137.88 40.3427 141.635 44.1207 146.635 44.1207C150.307 44.1207 153.378 42.1487 154.747 38.952H150.743C149.768 40.2597 148.316 40.9655 146.656 40.9655C144.146 40.9655 142.112 39.2011 141.594 36.5856L141.552 36.3572H151.842H155.432C155.473 35.9836 155.494 35.6722 155.494 35.3609C155.473 30.379 151.676 26.601 146.635 26.601ZM126.428 21.6814H109.52V24.546H126.428V21.6814ZM54.6463 21.6814H51.0572V38.3293C51.0572 41.7751 52.9659 43.9339 56.0363 43.9339C57.1359 43.9339 58.4636 43.7886 58.9408 43.7263V40.6126C58.4844 40.6749 57.4056 40.8202 56.638 40.8202C55.5177 40.8202 54.6463 39.8654 54.6463 38.6406V29.9846H58.9408V27.037H54.6463V21.6814ZM132.445 29.9638V38.6199C132.445 39.8654 133.337 40.8202 134.436 40.8202C135.204 40.8202 136.283 40.6749 136.739 40.6126V43.7263C136.641 43.7349 136.507 43.7487 136.346 43.7653C135.725 43.8292 134.708 43.9339 133.835 43.9339C130.764 43.9339 128.856 41.7751 128.856 38.3293V21.6814H132.445V27.037H136.739V29.9638H132.445ZM117.943 29.7562C120.93 29.7562 123.192 32.1641 123.192 35.3608C123.192 38.5576 120.93 40.9655 117.943 40.9655C114.997 40.9655 112.777 38.5576 112.777 35.3608C112.777 32.1641 114.997 29.7562 117.943 29.7562ZM109.188 35.3608C109.188 40.3635 112.964 44.1207 117.943 44.1207C121.221 44.1207 123.192 41.8166 123.192 41.8166V43.664H126.781V35.3401C126.781 30.3374 122.984 26.5803 117.943 26.5803C112.943 26.601 109.188 30.379 109.188 35.3608ZM89.3341 35.3402C89.3341 38.2255 89.8112 40.9448 93.1099 40.9448C95.2883 40.9448 97.5289 39.1181 97.5289 35.2571V27.037H101.118V43.6641H97.5289V41.8166C97.5289 41.8166 95.9107 44.1 92.7365 44.1C87.8818 44.1 85.7657 40.3013 85.7657 36.2328V27.037H89.3341V35.3402Z" fill="white"/>
</svg>
