<svg width="401" height="83" viewBox="0 0 401 83" fill="none" xmlns="http://www.w3.org/2000/svg">
<path d="M2 81.4267C0.895431 81.4267 2.0944e-08 80.5312 2.06568e-08 79.4267L5.20146e-10 2C2.32877e-10 0.895427 0.89543 -2.32878e-10 2 -5.20147e-10L11.5711 -3.00934e-09C12.6757 -3.29661e-09 13.5711 0.895431 13.5711 2L13.5711 79.4267C13.5711 80.5312 12.6757 81.4267 11.5711 81.4267L2 81.4267Z" fill="white"/>
<path d="M29.2864 81.4267C28.1818 81.4267 27.2864 80.5312 27.2864 79.4267L27.2864 27.188C27.2864 26.0834 28.1818 25.188 29.2864 25.188L38.8575 25.188C39.9621 25.188 40.8575 26.0834 40.8575 27.188L40.8575 79.4267C40.8575 80.5312 39.9621 81.4267 38.8575 81.4267L29.2864 81.4267Z" fill="white"/>
<path d="M56.3481 81.4267C55.2435 81.4267 54.3481 80.5312 54.3481 79.4267L54.3481 27.188C54.3481 26.0834 55.2435 25.188 56.3481 25.188L65.9192 25.188C67.0237 25.188 67.9192 26.0834 67.9192 27.188L67.9192 35.8406C67.9192 35.8934 67.962 35.9363 68.0149 35.9363V35.9363C68.0592 35.9363 68.0977 35.9059 68.1081 35.8628C69.6512 29.4868 74.9627 23.7766 83.3987 23.7766C92.6981 23.7766 98.1204 29.1615 100.202 35.8552C100.217 35.9033 100.261 35.9363 100.312 35.9363V35.9363C100.363 35.9363 100.408 35.9023 100.422 35.853C102.29 29.3741 107.708 23.7766 115.924 23.7766C128.3 23.7766 134.38 33.0049 134.38 43.4276L134.38 79.4267C134.38 80.5312 133.485 81.4267 132.38 81.4267L122.809 81.4267C121.705 81.4267 120.809 80.5312 120.809 79.4267L120.809 48.2046C120.809 41.4733 116.792 36.8049 110.061 36.8049C103.764 36.8049 101.313 41.5819 101.313 48.7474L101.313 79.4267C101.313 80.5312 100.417 81.4267 99.3126 81.4267L89.7415 81.4267C88.6369 81.4267 87.7415 80.5312 87.7415 79.4267L87.7415 48.2046C87.7415 41.4733 83.2902 36.8049 76.776 36.8049C70.3705 36.8049 67.9192 41.9076 67.9192 48.7474L67.9192 79.4267C67.9192 80.5312 67.0237 81.4267 65.9192 81.4267L56.3481 81.4267Z" fill="white"/>
<path d="M149.123 81.4267C148.018 81.4267 147.123 80.5312 147.123 79.4267L147.123 27.188C147.123 26.0834 148.018 25.188 149.123 25.188L158.694 25.188C159.798 25.188 160.694 26.0834 160.694 27.188L160.694 79.4267C160.694 80.5312 159.798 81.4267 158.694 81.4267L149.123 81.4267Z" fill="white"/>
<path d="M196.092 81.4267C186.104 81.4267 178.613 77.0839 178.613 64.8156L178.613 38.5877C178.613 37.4831 177.717 36.5877 176.613 36.5877L170.407 36.5877C169.303 36.5877 168.407 35.6923 168.407 34.5877L168.407 27.188C168.407 26.0834 169.303 25.188 170.407 25.188L176.83 25.188C177.935 25.188 178.83 24.2926 178.83 23.188L178.83 14.594C178.83 13.4894 179.725 12.594 180.83 12.594L190.075 12.594C191.18 12.594 192.075 13.4894 192.075 14.594L192.075 23.188C192.075 24.2926 192.971 25.188 194.075 25.188L205.926 25.188C207.031 25.188 207.926 26.0834 207.926 27.188L207.926 34.5877C207.926 35.6923 207.031 36.5877 205.926 36.5877L194.075 36.5877C192.971 36.5877 192.075 37.4831 192.075 38.5877L192.075 63.5128C192.075 67.6384 194.247 69.1584 197.612 69.1584L205.058 69.1584C206.162 69.1584 207.058 70.0538 207.058 71.1584L207.058 79.4267C207.058 80.5312 206.162 81.4267 205.058 81.4267L196.092 81.4267Z" fill="white"/>
<path d="M219.333 81.4267C218.228 81.4267 217.333 80.5312 217.333 79.4267L217.333 2C217.333 0.895427 218.228 -5.67554e-08 219.333 -5.70427e-08L228.904 -5.95319e-08C230.009 -5.98191e-08 230.904 0.89543 230.904 2L230.904 79.4267C230.904 80.5312 230.009 81.4267 228.904 81.4267L219.333 81.4267Z" fill="white"/>
<path d="M267.35 82.8381C250.739 82.8381 238.362 70.8955 238.362 53.0902C238.362 36.1534 250.088 23.7766 267.024 23.7766C283.961 23.7766 294.275 36.8049 294.058 51.0274L293.981 55.8989C293.963 56.991 293.073 57.8672 291.981 57.8672L251.716 57.8672C253.236 66.3356 259.207 71.0041 267.35 71.0041C272.429 71.0041 276.959 68.726 279.669 65.7067C280.426 64.8631 281.7 64.5859 282.636 65.2241L289.182 69.6838C290.081 70.2967 290.332 71.5218 289.675 72.3896C284.919 78.6711 277.477 82.8381 267.35 82.8381ZM252.042 46.9018L280.921 46.9018C280.596 40.7133 274.95 34.9592 267.024 34.9592C259.316 34.9592 253.888 39.5191 252.042 46.9018Z" fill="white"/>
<path d="M322.153 82.8381C310.102 82.8381 301.414 77.1703 298.437 67.5518C298.118 66.5224 298.769 65.47 299.812 65.1999L308.089 63.0567C309.188 62.7723 310.284 63.4703 310.715 64.5201C312.599 69.1115 317.093 71.2212 322.261 71.2212C329.644 71.2212 332.901 68.2898 332.901 65.0328C332.901 62.21 331.164 60.1472 326.496 59.2786L316.29 57.2158C308.582 55.8044 300.873 51.0274 300.873 40.8219C300.873 31.485 309.233 23.7766 323.13 23.7766C334.514 23.7766 342.947 29.3905 345.759 38.2131C346.084 39.2332 345.44 40.2789 344.405 40.5542L336.507 42.6555C335.382 42.9549 334.256 42.218 333.785 41.1529C332.183 37.5296 328.28 34.9592 323.13 34.9592C317.159 34.9592 314.01 37.782 314.01 40.8219C314.01 43.7533 316.29 45.3818 320.416 46.2503L329.97 48.096C340.718 50.1588 346.255 55.913 346.255 65.0328C346.255 75.7811 337.027 82.8381 322.153 82.8381Z" fill="white"/>
<path d="M376.406 82.8381C364.355 82.8381 355.667 77.1703 352.69 67.5518C352.371 66.5224 353.022 65.47 354.065 65.1999L362.343 63.0567C363.441 62.7723 364.537 63.4703 364.968 64.5201C366.852 69.1115 371.346 71.2212 376.515 71.2212C383.897 71.2212 387.154 68.2898 387.154 65.0328C387.154 62.21 385.417 60.1472 380.749 59.2786L370.543 57.2158C362.835 55.8044 355.126 51.0274 355.126 40.8219C355.126 31.485 363.486 23.7766 377.383 23.7766C388.767 23.7766 397.2 29.3905 400.012 38.2131C400.337 39.2332 399.693 40.2789 398.658 40.5542L390.76 42.6555C389.635 42.9549 388.509 42.218 388.038 41.1529C386.436 37.5296 382.533 34.9592 377.383 34.9592C371.412 34.9592 368.263 37.782 368.263 40.8219C368.263 43.7533 370.543 45.3818 374.669 46.2503L384.223 48.096C394.971 50.1588 400.508 55.913 400.508 65.0328C400.508 75.7811 391.28 82.8381 376.406 82.8381Z" fill="white"/>
<rect x="28" y="3" width="133" height="13" rx="2" fill="url(#paint0_linear_77_54)"/>
<defs>
<linearGradient id="paint0_linear_77_54" x1="161" y1="9.99996" x2="28" y2="9.99997" gradientUnits="userSpaceOnUse">
<stop stop-color="white"/>
<stop offset="1" stop-color="white" stop-opacity="0"/>
</linearGradient>
</defs>
</svg>
