<svg width="175" height="64" viewBox="0 0 175 64" fill="none" xmlns="http://www.w3.org/2000/svg">
<path d="M52.5426 37.5866C52.8762 38.4726 53.3382 39.2301 53.9285 39.8592C54.5188 40.4883 55.2182 40.9698 56.0265 41.3036C56.835 41.6375 57.714 41.8044 58.6636 41.8044C59.5876 41.8044 60.4537 41.631 61.2622 41.2843C62.0706 40.9376 62.7764 40.4497 63.3794 39.8206C63.9825 39.1915 64.4509 38.4404 64.7846 37.5673C65.1183 36.6942 65.285 35.7185 65.285 34.6399V18H69.3272V44.9628H65.3236V42.4591C64.4253 43.4092 63.3666 44.141 62.1475 44.6547C60.9284 45.1682 59.6132 45.425 58.2017 45.425C56.7644 45.425 55.4234 45.1746 54.1787 44.6739C52.934 44.1732 51.856 43.4606 50.945 42.5361C50.034 41.6117 49.3153 40.5012 48.7892 39.2043C48.263 37.9076 48 36.4632 48 34.871V18H52.0421V34.6399C52.0421 35.7185 52.2089 36.7006 52.5426 37.5866Z" fill="white"/>
<path d="M76.2947 18V27.8221C77.193 26.9234 78.2325 26.2109 79.413 25.6844C80.5935 25.1579 81.8768 24.8948 83.2626 24.8948C84.6999 24.8948 86.0472 25.1643 87.3048 25.7036C88.5623 26.2428 89.653 26.9747 90.577 27.8992C91.5009 28.8237 92.2324 29.915 92.7713 31.1732C93.3103 32.4316 93.5797 33.7668 93.5797 35.1792C93.5797 36.5914 93.3103 37.9204 92.7713 39.1657C92.2324 40.4112 91.5009 41.4962 90.577 42.4205C89.653 43.345 88.5623 44.0769 87.3048 44.6161C86.0472 45.1553 84.6998 45.4249 83.2626 45.4249C81.8767 45.4249 80.5872 45.1617 79.3938 44.6353C78.2004 44.1089 77.1545 43.3963 76.2562 42.4975V44.9627H72.4066V18H76.2947ZM76.7374 37.8369C77.0839 38.6587 77.5652 39.3777 78.1811 39.994C78.7971 40.6103 79.5157 41.0982 80.3369 41.4577C81.1582 41.8172 82.0436 41.997 82.9932 41.997C83.9172 41.997 84.7897 41.8172 85.6109 41.4577C86.4322 41.0982 87.1443 40.6104 87.7476 39.994C88.3506 39.3778 88.8318 38.6587 89.1911 37.8369C89.5504 37.0152 89.7301 36.1293 89.7301 35.1792C89.7301 34.229 89.5504 33.3367 89.1911 32.5021C88.8318 31.6675 88.3506 30.9422 87.7476 30.3259C87.1444 29.7096 86.4323 29.2281 85.6109 28.8815C84.7896 28.5348 83.9171 28.3614 82.9932 28.3614C82.0693 28.3614 81.1967 28.5348 80.3755 28.8815C79.5542 29.2282 78.8356 29.7096 78.2196 30.3259C77.6037 30.9422 77.1161 31.6675 76.7568 32.5021C76.3975 33.3367 76.2178 34.229 76.2178 35.1792C76.2177 36.1293 76.391 37.0152 76.7374 37.8369Z" fill="white"/>
<path d="M95.7736 31.2118C96.2868 29.9792 96.9927 28.8943 97.8909 27.9571C98.789 27.0198 99.8542 26.2815 101.086 25.7423C102.318 25.203 103.653 24.9334 105.09 24.9334C106.501 24.9334 107.81 25.1902 109.016 25.7037C110.223 26.2173 111.262 26.93 112.135 27.8416C113.007 28.7531 113.687 29.8317 114.175 31.0771C114.663 32.3225 114.906 33.6771 114.906 35.1408V36.4119H98.9303C99.0587 37.208 99.3154 37.9463 99.7003 38.6266C100.085 39.3071 100.566 39.8978 101.144 40.3985C101.721 40.8993 102.376 41.2909 103.107 41.5733C103.839 41.8557 104.615 41.9971 105.436 41.9971C107.772 41.9971 109.658 41.034 111.095 39.1081L113.906 41.1881C112.93 42.4977 111.724 43.5249 110.287 44.2695C108.85 45.0142 107.233 45.3866 105.436 45.3866C103.973 45.3866 102.607 45.1297 101.336 44.6162C100.066 44.1027 98.9625 43.3836 98.0258 42.4591C97.089 41.5346 96.3512 40.4497 95.8122 39.2043C95.2733 37.959 95.0038 36.6043 95.0038 35.1407C95.0036 33.7541 95.2604 32.4444 95.7736 31.2118ZM101.182 29.6903C100.092 30.6019 99.3666 31.8152 99.0073 33.3303H110.98C110.646 31.8152 109.934 30.6019 108.843 29.6903C107.752 28.7788 106.476 28.3229 105.013 28.3229C103.55 28.3229 102.273 28.7788 101.182 29.6903Z" fill="white"/>
<path d="M122.182 30.1332C121.361 31.032 120.95 32.2517 120.95 33.7925V44.9629H117.062V25.3185H120.912V27.7452C121.399 26.9491 122.035 26.32 122.817 25.8578C123.6 25.3955 124.53 25.1643 125.608 25.1643H126.956V28.7851H125.339C124.056 28.7852 123.003 29.2345 122.182 30.1332Z" fill="white"/>
</svg>
